<?xml version="1.0" encoding="UTF-8" standalone="no"?>
<!-- Created with Inkscape (http://www.inkscape.org/) -->

<svg
   xmlns:dc="http://purl.org/dc/elements/1.1/"
   xmlns:cc="http://creativecommons.org/ns#"
   xmlns:rdf="http://www.w3.org/1999/02/22-rdf-syntax-ns#"
   xmlns:svg="http://www.w3.org/2000/svg"
   xmlns="http://www.w3.org/2000/svg"
   xmlns:sodipodi="http://sodipodi.sourceforge.net/DTD/sodipodi-0.dtd"
   xmlns:inkscape="http://www.inkscape.org/namespaces/inkscape"
   width="733.46777"
   height="38.03521"
   id="svg2"
   version="1.1"
   inkscape:version="0.48.4 r9939"
   sodipodi:docname="810_mwd.svg"
   inkscape:export-filename="/home/alex/Dropbox/810labs/logo/810logo_squarish.png"
   inkscape:export-xdpi="300"
   inkscape:export-ydpi="300">
  <defs
     id="defs4" />
  <sodipodi:namedview
     id="base"
     pagecolor="#ffffff"
     bordercolor="#666666"
     borderopacity="1.0"
     inkscape:pageopacity="0.0"
     inkscape:pageshadow="2"
     inkscape:zoom="2"
     inkscape:cx="383.56482"
     inkscape:cy="-51.61973"
     inkscape:document-units="px"
     inkscape:current-layer="layer1"
     showgrid="false"
     inkscape:window-width="1985"
     inkscape:window-height="1304"
     inkscape:window-x="272"
     inkscape:window-y="124"
     inkscape:window-maximized="0"
     fit-margin-top="0"
     fit-margin-left="0"
     fit-margin-right="0"
     fit-margin-bottom="0"
     inkscape:snap-to-guides="true"
     inkscape:snap-grids="true"
     inkscape:snap-page="true"
     inkscape:snap-center="true"
     inkscape:snap-object-midpoints="true"
     inkscape:snap-midpoints="true"
     inkscape:snap-smooth-nodes="true"
     inkscape:object-nodes="true"
     inkscape:snap-bbox="true"
     showguides="true"
     inkscape:guide-bbox="true"
     units="in" />
  <metadata
     id="metadata7">
    <rdf:RDF>
      <cc:Work
         rdf:about="">
        <dc:format>image/svg+xml</dc:format>
        <dc:type
           rdf:resource="http://purl.org/dc/dcmitype/StillImage" />
        <dc:title></dc:title>
      </cc:Work>
    </rdf:RDF>
  </metadata>
  <g
     inkscape:label="Layer 1"
     inkscape:groupmode="layer"
     id="layer1"
     style="display:inline"
     transform="translate(-501.74954,-595.59638)">
    <text
       xml:space="preserve"
       style="font-size:20px;font-style:normal;font-variant:normal;font-weight:normal;font-stretch:normal;line-height:125%;letter-spacing:0px;word-spacing:0px;fill:#000000;fill-opacity:1;stroke:none;font-family:Bitstream Charter;-inkscape-font-specification:Bitstream Charter"
       x="301.53055"
       y="267.97873"
       id="text2999"
       sodipodi:linespacing="125%"><tspan
         sodipodi:role="line"
         id="tspan3001"
         x="301.53055"
         y="267.97873" /></text>
    <text
       xml:space="preserve"
       style="font-size:20px;font-style:normal;font-variant:normal;font-weight:bold;font-stretch:condensed;line-height:125%;letter-spacing:3.49000001px;word-spacing:0px;fill:#000000;fill-opacity:1;stroke:none;font-family:Liberation Sans Narrow;-inkscape-font-specification:Liberation Sans Narrow Bold Condensed"
       x="228.29448"
       y="104.02033"
       id="text4248"
       sodipodi:linespacing="125%"
       transform="translate(145.96113,206.87869)"><tspan
         sodipodi:role="line"
         id="tspan4250"
         x="228.29448"
         y="104.02033" /></text>
    <text
       xml:space="preserve"
       style="font-size:20px;font-style:normal;font-variant:normal;font-weight:bold;font-stretch:condensed;line-height:125%;letter-spacing:3.49000001px;word-spacing:0px;fill:#000000;fill-opacity:1;stroke:none;font-family:Liberation Sans Narrow;-inkscape-font-specification:Liberation Sans Narrow Bold Condensed"
       x="195.96959"
       y="180.79193"
       id="text4273"
       sodipodi:linespacing="125%"
       transform="translate(145.96113,206.87869)"><tspan
         sodipodi:role="line"
         id="tspan4275"
         x="195.96959"
         y="180.79193" /></text>
    <flowRoot
       xml:space="preserve"
       id="flowRoot4397"
       style="font-size:20px;font-style:normal;font-variant:normal;font-weight:normal;font-stretch:normal;line-height:125%;letter-spacing:3.49000001px;word-spacing:0px;fill:#000000;fill-opacity:1;stroke:none;font-family:Bitstream Charter;-inkscape-font-specification:Bitstream Charter"
       transform="translate(-247.81152,-37.190643)"><flowRegion
         id="flowRegion4399"><rect
           id="rect4401"
           width="49.143921"
           height="29.344931"
           x="767.74121"
           y="572.56171" /></flowRegion><flowPara
         id="flowPara4403" /></flowRoot>    <path
       inkscape:connector-curvature="0"
       id="path4216"
       style="font-size:50.78132629px;font-style:normal;font-variant:normal;font-weight:normal;font-stretch:normal;text-indent:0;text-align:start;text-decoration:none;line-height:100%;letter-spacing:16.29233551px;word-spacing:0px;text-transform:none;direction:ltr;block-progression:tb;writing-mode:lr-tb;text-anchor:start;color:#000000;fill:#000000;fill-opacity:1;fill-rule:nonzero;stroke:none;stroke-width:1px;marker:none;visibility:visible;font-family:Ubuntu;-inkscape-font-specification:Ubuntu"
       d="m 976.10296,615.35032 c -4e-5,3.04689 -0.474,5.70444 -1.42188,7.97266 -0.94795,2.23439 -2.28519,4.09637 -4.01173,5.58595 -1.72659,1.45573 -3.79169,2.55599 -6.19532,3.30079 -2.40367,0.71093 -5.04429,1.0664 -7.92189,1.0664 -1.42188,0 -2.9961,-0.0677 -4.72266,-0.20312 -1.69272,-0.10156 -3.23308,-0.32162 -4.6211,-0.66016 l 0,-34.12505 c 1.38802,-0.33851 2.92838,-0.55856 4.6211,-0.66016 1.72656,-0.13538 3.30078,-0.20309 4.72266,-0.20312 2.8776,3e-5 5.51822,0.37243 7.92189,1.11719 2.40363,0.71097 4.46873,1.81123 6.19532,3.30078 1.72654,1.45576 3.06378,3.31774 4.01173,5.58595 0.94788,2.2344 1.42184,4.87503 1.42188,7.92189 m -19.14456,13.60939 c 4.67186,0 8.15884,-1.18489 10.46095,-3.55469 2.30206,-2.40364 3.4531,-5.75521 3.45313,-10.0547 -3e-5,-4.29947 -1.15107,-7.63411 -3.45313,-10.00393 -2.30211,-2.40362 -5.78909,-3.60544 -10.46095,-3.60547 -1.38804,3e-5 -2.47137,0.017 -3.25001,0.0508 -0.7448,0.0339 -1.26954,0.0677 -1.57422,0.10156 l 0,26.91411 c 0.30468,0.0339 0.82942,0.0677 1.57422,0.10156 0.77864,0.0339 1.86197,0.0508 3.25001,0.0508" />
    <path
       inkscape:connector-curvature="0"
       id="path4218"
       style="font-size:50.78132629px;font-style:normal;font-variant:normal;font-weight:normal;font-stretch:normal;text-indent:0;text-align:start;text-decoration:none;line-height:100%;letter-spacing:16.29233551px;word-spacing:0px;text-transform:none;direction:ltr;block-progression:tb;writing-mode:lr-tb;text-anchor:start;color:#000000;fill:#000000;fill-opacity:1;fill-rule:nonzero;stroke:none;stroke-width:1px;marker:none;visibility:visible;font-family:Ubuntu;-inkscape-font-specification:Ubuntu"
       d="m 1004.1203,632.97144 -4.72271,0 0,-26.40629 4.72271,0 0,26.40629 m -2.3868,-31.17974 c -0.8463,3e-5 -1.5742,-0.2708 -2.18357,-0.8125 -0.57552,-0.57549 -0.86328,-1.33721 -0.86328,-2.28516 0,-0.94788 0.28776,-1.69267 0.86328,-2.23438 0.60937,-0.57548 1.33727,-0.86324 2.18357,-0.86328 0.8464,4e-5 1.5573,0.2878 2.1328,0.86328 0.6094,0.54171 0.9141,1.2865 0.9141,2.23438 0,0.94795 -0.3047,1.70967 -0.9141,2.28516 -0.5755,0.5417 -1.2864,0.81253 -2.1328,0.8125" />
    <path
       inkscape:connector-curvature="0"
       id="path4220"
       style="font-size:50.78132629px;font-style:normal;font-variant:normal;font-weight:normal;font-stretch:normal;text-indent:0;text-align:start;text-decoration:none;line-height:100%;letter-spacing:16.29233551px;word-spacing:0px;text-transform:none;direction:ltr;block-progression:tb;writing-mode:lr-tb;text-anchor:start;color:#000000;fill:#000000;fill-opacity:1;fill-rule:nonzero;stroke:none;stroke-width:1px;marker:none;visibility:visible;font-family:Ubuntu;-inkscape-font-specification:Ubuntu"
       d="m 1049.2008,606.56515 c -1.3203,4.94273 -2.8776,9.68232 -4.6718,14.21877 -1.7605,4.53647 -3.4701,8.59897 -5.129,12.18752 l -4.2656,0 c -1.6589,-3.58855 -3.3854,-7.65105 -5.1797,-12.18752 -1.7604,-4.53645 -3.3008,-9.27604 -4.6211,-14.21877 l 5.0782,0 c 0.4062,1.65888 0.8802,3.43622 1.4218,5.33204 0.5755,1.862 1.168,3.72398 1.7774,5.58594 0.6432,1.82814 1.2864,3.60549 1.9297,5.33204 0.6432,1.72657 1.2526,3.26694 1.8281,4.6211 0.5755,-1.35416 1.1849,-2.89453 1.8281,-4.6211 0.6432,-1.72655 1.2695,-3.5039 1.8789,-5.33204 0.6432,-1.86196 1.2357,-3.72394 1.7774,-5.58594 0.5755,-1.89582 1.0664,-3.67316 1.4726,-5.33204 l 4.875,0" />
    <path
       inkscape:connector-curvature="0"
       id="path4222"
       style="font-size:50.78132629px;font-style:normal;font-variant:normal;font-weight:normal;font-stretch:normal;text-indent:0;text-align:start;text-decoration:none;line-height:100%;letter-spacing:16.29233551px;word-spacing:0px;text-transform:none;direction:ltr;block-progression:tb;writing-mode:lr-tb;text-anchor:start;color:#000000;fill:#000000;fill-opacity:1;fill-rule:nonzero;stroke:none;stroke-width:1px;marker:none;visibility:visible;font-family:Ubuntu;-inkscape-font-specification:Ubuntu"
       d="m 1075.0885,632.97144 -4.7227,0 0,-26.40629 4.7227,0 0,26.40629 m -2.3868,-31.17974 c -0.8463,3e-5 -1.5742,-0.2708 -2.1836,-0.8125 -0.5755,-0.57549 -0.8633,-1.33721 -0.8632,-2.28516 -10e-5,-0.94788 0.2877,-1.69267 0.8632,-2.23438 0.6094,-0.57548 1.3373,-0.86324 2.1836,-0.86328 0.8464,4e-5 1.5573,0.2878 2.1328,0.86328 0.6094,0.54171 0.9141,1.2865 0.9141,2.23438 0,0.94795 -0.3047,1.70967 -0.9141,2.28516 -0.5755,0.5417 -1.2864,0.81253 -2.1328,0.8125" />
    <path
       inkscape:connector-curvature="0"
       id="path4224"
       style="font-size:50.78132629px;font-style:normal;font-variant:normal;font-weight:normal;font-stretch:normal;text-indent:0;text-align:start;text-decoration:none;line-height:100%;letter-spacing:16.29233551px;word-spacing:0px;text-transform:none;direction:ltr;block-progression:tb;writing-mode:lr-tb;text-anchor:start;color:#000000;fill:#000000;fill-opacity:1;fill-rule:nonzero;stroke:none;stroke-width:1px;marker:none;visibility:visible;font-family:Ubuntu;-inkscape-font-specification:Ubuntu"
       d="m 1105.6964,629.56909 c 1.9296,0 3.3515,-0.25391 4.2656,-0.76172 0.9479,-0.50781 1.4219,-1.32031 1.4219,-2.43751 0,-1.15103 -0.4571,-2.0651 -1.3711,-2.74219 -0.9141,-0.67707 -2.4206,-1.43879 -4.5196,-2.28516 -1.0156,-0.40624 -1.9974,-0.81249 -2.9453,-1.21875 -0.914,-0.44009 -1.7096,-0.9479 -2.3867,-1.52344 -0.6771,-0.57551 -1.2188,-1.26952 -1.625,-2.08203 -0.4063,-0.81249 -0.6094,-1.81119 -0.6094,-2.9961 0,-2.33592 0.8633,-4.18097 2.5899,-5.53517 1.7265,-1.38799 4.0794,-2.082 7.0586,-2.08203 0.7448,3e-5 1.4895,0.0508 2.2344,0.15234 0.7447,0.0677 1.4387,0.1693 2.082,0.30469 0.6432,0.10159 1.2018,0.22008 1.6758,0.35547 0.5078,0.13544 0.8971,0.25393 1.1679,0.35547 l -0.8632,4.06251 c -0.5079,-0.27082 -1.3034,-0.54165 -2.3868,-0.81251 -1.0833,-0.30466 -2.3867,-0.457 -3.9101,-0.45703 -1.3204,3e-5 -2.4714,0.27086 -3.4532,0.8125 -0.9817,0.50784 -1.4726,1.32034 -1.4726,2.43751 0,0.57554 0.1015,1.08335 0.3047,1.52344 0.2369,0.44012 0.5755,0.84637 1.0156,1.21875 0.474,0.33856 1.0495,0.66017 1.7266,0.96484 0.677,0.30471 1.4895,0.62632 2.4375,0.96485 1.2526,0.47397 2.3697,0.94793 3.3515,1.42188 0.9818,0.44011 1.8112,0.96485 2.4883,1.57422 0.7109,0.60938 1.2526,1.35418 1.625,2.23438 0.3724,0.84636 0.5586,1.89584 0.5586,3.14844 0,2.43751 -0.9141,4.28256 -2.7422,5.53516 -1.7943,1.25261 -4.3672,1.87891 -7.7187,1.87891 -2.336,0 -4.1641,-0.20312 -5.4844,-0.60937 -1.3203,-0.3724 -2.2175,-0.66016 -2.6914,-0.86329 l 0.8633,-4.0625 c 0.5416,0.20313 1.4049,0.50781 2.5898,0.91406 1.1849,0.40625 2.7591,0.60938 4.7227,0.60938" />
    <path
       inkscape:connector-curvature="0"
       id="path4226"
       style="font-size:50.78132629px;font-style:normal;font-variant:normal;font-weight:normal;font-stretch:normal;text-indent:0;text-align:start;text-decoration:none;line-height:100%;letter-spacing:16.29233551px;word-spacing:0px;text-transform:none;direction:ltr;block-progression:tb;writing-mode:lr-tb;text-anchor:start;color:#000000;fill:#000000;fill-opacity:1;fill-rule:nonzero;stroke:none;stroke-width:1px;marker:none;visibility:visible;font-family:Ubuntu;-inkscape-font-specification:Ubuntu"
       d="m 1143.1804,632.97144 -4.7227,0 0,-26.40629 4.7227,0 0,26.40629 m -2.3868,-31.17974 c -0.8463,3e-5 -1.5742,-0.2708 -2.1835,-0.8125 -0.5756,-0.57549 -0.8633,-1.33721 -0.8633,-2.28516 0,-0.94788 0.2877,-1.69267 0.8633,-2.23438 0.6093,-0.57548 1.3372,-0.86324 2.1835,-0.86328 0.8464,4e-5 1.5573,0.2878 2.1329,0.86328 0.6093,0.54171 0.914,1.2865 0.914,2.23438 0,0.94795 -0.3047,1.70967 -0.914,2.28516 -0.5756,0.5417 -1.2865,0.81253 -2.1329,0.8125" />
    <path
       inkscape:connector-curvature="0"
       id="path4228"
       style="font-size:50.78132629px;font-style:normal;font-variant:normal;font-weight:normal;font-stretch:normal;text-indent:0;text-align:start;text-decoration:none;line-height:100%;letter-spacing:16.29233551px;word-spacing:0px;text-transform:none;direction:ltr;block-progression:tb;writing-mode:lr-tb;text-anchor:start;color:#000000;fill:#000000;fill-opacity:1;fill-rule:nonzero;stroke:none;stroke-width:1px;marker:none;visibility:visible;font-family:Ubuntu;-inkscape-font-specification:Ubuntu"
       d="m 1190.9524,619.76829 c -10e-5,2.09897 -0.3047,3.99481 -0.9141,5.68751 -0.6094,1.69272 -1.4727,3.14845 -2.5898,4.36719 -1.0834,1.21876 -2.3868,2.16667 -3.9102,2.84376 -1.5235,0.64323 -3.1823,0.96484 -4.9766,0.96484 -1.7943,0 -3.4531,-0.32161 -4.9765,-0.96484 -1.5235,-0.67709 -2.8438,-1.625 -3.961,-2.84376 -1.0833,-1.21874 -1.9297,-2.67447 -2.5391,-4.36719 -0.6093,-1.6927 -0.914,-3.58854 -0.914,-5.68751 0,-2.06509 0.3047,-3.944 0.914,-5.63673 0.6094,-1.72654 1.4558,-3.1992 2.5391,-4.41797 1.1172,-1.21873 2.4375,-2.14972 3.961,-2.79297 1.5234,-0.67706 3.1822,-1.0156 4.9765,-1.01563 1.7943,3e-5 3.4531,0.33857 4.9766,1.01563 1.5234,0.64325 2.8268,1.57424 3.9102,2.79297 1.1171,1.21877 1.9804,2.69143 2.5898,4.41797 0.6094,1.69273 0.914,3.57164 0.9141,5.63673 m -4.9258,0 c 0,-2.97915 -0.6771,-5.33202 -2.0313,-7.0586 -1.3203,-1.7604 -3.1315,-2.64061 -5.4336,-2.64063 -2.3021,2e-5 -4.1302,0.88023 -5.4844,2.64063 -1.3203,1.72658 -1.9804,4.07945 -1.9804,7.0586 0,2.97918 0.6601,5.34897 1.9804,7.10939 1.3542,1.72657 3.1823,2.58985 5.4844,2.58984 2.3021,10e-6 4.1133,-0.86327 5.4336,-2.58984 1.3542,-1.76042 2.0313,-4.13021 2.0313,-7.10939" />
    <path
       inkscape:connector-curvature="0"
       id="path4230"
       style="font-size:50.78132629px;font-style:normal;font-variant:normal;font-weight:normal;font-stretch:normal;text-indent:0;text-align:start;text-decoration:none;line-height:100%;letter-spacing:16.29233551px;word-spacing:0px;text-transform:none;direction:ltr;block-progression:tb;writing-mode:lr-tb;text-anchor:start;color:#000000;fill:#000000;fill-opacity:1;fill-rule:nonzero;stroke:none;stroke-width:1px;marker:none;visibility:visible;font-family:Ubuntu;-inkscape-font-specification:Ubuntu"
       d="m 1213.8891,607.32687 c 1.0833,-0.27081 2.5221,-0.55857 4.3164,-0.86329 1.7943,-0.30466 3.8594,-0.457 6.1953,-0.45703 2.099,3e-5 3.8425,0.30472 5.2305,0.91407 1.388,0.57554 2.4883,1.40497 3.3008,2.48828 0.8463,1.0495 1.4388,2.31904 1.7773,3.8086 0.3386,1.4896 0.5078,3.13153 0.5079,4.92579 l 0,14.82815 -4.7227,0 0,-13.81253 c 0,-1.62498 -0.1185,-3.013 -0.3555,-4.16406 -0.2031,-1.15103 -0.5586,-2.08202 -1.0664,-2.79298 -0.5078,-0.71091 -1.1849,-1.21873 -2.0312,-1.52344 -0.8464,-0.33852 -1.8959,-0.50779 -3.1485,-0.50781 -0.5078,2e-5 -1.0325,0.017 -1.5742,0.0508 -0.5417,0.0339 -1.0664,0.0847 -1.5742,0.15235 -0.474,0.0339 -0.9141,0.0847 -1.3203,0.15234 -0.3724,0.0677 -0.6433,0.11851 -0.8125,0.15234 l 0,22.29301 -4.7227,0 0,-25.64457" />
    <g
       style="font-size:56px;font-style:normal;font-variant:normal;font-weight:normal;font-stretch:normal;text-indent:0;text-align:start;text-decoration:none;line-height:125%;letter-spacing:15.44999981px;word-spacing:0px;text-transform:none;direction:ltr;block-progression:tb;writing-mode:lr-tb;text-anchor:start;baseline-shift:baseline;color:#000000;fill:#000000;fill-opacity:1;fill-rule:nonzero;stroke:none;stroke-width:1px;marker:none;visibility:visible;display:inline;overflow:visible;enable-background:accumulate;font-family:Ubuntu;-inkscape-font-specification:Ubuntu"
       id="text3039">
      <path
         d="m 518.24954,628.18157 c -0.33336,-0.8 -0.78336,-1.81666 -1.35,-3.05 -0.53336,-1.23333 -1.11669,-2.56666 -1.75,-4 -0.63335,-1.43332 -1.31669,-2.89999 -2.05,-4.4 -0.70002,-1.53332 -1.36668,-2.96665 -2,-4.3 -0.63335,-1.36665 -1.23335,-2.58331 -1.8,-3.65 -0.53335,-1.06664 -0.96668,-1.88331 -1.3,-2.45 -0.36668,3.93335 -0.66668,8.20002 -0.9,12.8 -0.23335,4.56667 -0.43335,9.18334 -0.6,13.85 l -4.75,0 c 0.13333,-3 0.28333,-6.01666 0.45,-9.05 0.16666,-3.06666 0.34999,-6.06665 0.55,-9 0.23332,-2.96665 0.46666,-5.84998 0.7,-8.65 0.26666,-2.79997 0.54999,-5.44997 0.85,-7.95 l 4.25,0 c 0.89999,1.4667 1.86665,3.20003 2.9,5.2 1.03332,2.00002 2.06665,4.10002 3.1,6.3 1.03331,2.16669 2.03331,4.35002 3,6.55 0.96664,2.16668 1.84998,4.15001 2.65,5.95 0.79997,-1.79999 1.68331,-3.78332 2.65,-5.95 0.96664,-2.19998 1.96664,-4.38331 3,-6.55 1.0333,-2.19998 2.06663,-4.29998 3.1,-6.3 1.0333,-1.99997 1.99996,-3.7333 2.9,-5.2 l 4.25,0 c 1.13329,11.16669 1.98329,22.71668 2.55,34.65 l -4.75,0 c -0.16671,-4.66666 -0.36671,-9.28333 -0.6,-13.85 -0.23337,-4.59998 -0.53337,-8.86665 -0.9,-12.8 -0.33337,0.56669 -0.78337,1.38336 -1.35,2.45 -0.53337,1.06669 -1.1167,2.28335 -1.75,3.65 -0.63337,1.33335 -1.3167,2.76668 -2.05,4.3 -0.70003,1.50001 -1.3667,2.96668 -2,4.4 -0.63336,1.43334 -1.23336,2.76667 -1.8,4 -0.53336,1.23334 -0.96669,2.25 -1.3,3.05 l -3.9,0"
         style="font-size:50px;marker:none"
         id="path3063"
         inkscape:connector-curvature="0" />
      <path
         d="m 566.05422,632.98157 -4.65,0 0,-26 4.65,0 0,26 m -2.35,-30.7 c -0.83333,3e-5 -1.55,-0.26664 -2.15,-0.8 -0.56667,-0.56664 -0.85,-1.31664 -0.85,-2.25 0,-0.9333 0.28333,-1.66663 0.85,-2.2 0.6,-0.56663 1.31667,-0.84997 2.15,-0.85 0.83333,3e-5 1.53333,0.28337 2.1,0.85 0.6,0.53337 0.9,1.2667 0.9,2.2 0,0.93336 -0.3,1.68336 -0.9,2.25 -0.56667,0.53336 -1.26667,0.80003 -2.1,0.8"
         style="font-size:50px;marker:none"
         id="path3065"
         inkscape:connector-curvature="0" />
      <path
         d="m 600.84954,633.58157 c -2.10002,0 -3.95001,-0.33334 -5.55,-1 -1.56668,-0.66667 -2.90001,-1.6 -4,-2.8 -1.06667,-1.2 -1.86667,-2.61666 -2.4,-4.25 -0.53334,-1.66666 -0.8,-3.49999 -0.8,-5.5 0,-1.99999 0.28333,-3.83332 0.85,-5.5 0.59999,-1.66665 1.43333,-3.09998 2.5,-4.3 1.06666,-1.23331 2.36666,-2.18331 3.9,-2.85 1.56665,-0.69998 3.29998,-1.04998 5.2,-1.05 1.16665,2e-5 2.33331,0.10002 3.5,0.3 1.16664,0.20002 2.28331,0.51669 3.35,0.95 l -1.05,3.95 c -0.70002,-0.33331 -1.51669,-0.59998 -2.45,-0.8 -0.90002,-0.19998 -1.86669,-0.29998 -2.9,-0.3 -2.60002,2e-5 -4.60001,0.81669 -6,2.45 -1.36668,1.63335 -2.05001,4.01668 -2.05,7.15 -10e-6,1.40001 0.14999,2.68334 0.45,3.85 0.33332,1.16667 0.83332,2.16667 1.5,3 0.69999,0.83334 1.58332,1.48334 2.65,1.95 1.06665,0.43333 2.36665,0.65 3.9,0.65 1.23331,0 2.34998,-0.11667 3.35,-0.35 0.99998,-0.23333 1.78331,-0.48333 2.35,-0.75 l 0.65,3.9 c -0.26669,0.16666 -0.65002,0.33333 -1.15,0.5 -0.50002,0.13333 -1.06669,0.25 -1.7,0.35 -0.63335,0.13333 -1.31669,0.23333 -2.05,0.3 -0.70002,0.1 -1.38335,0.15 -2.05,0.15"
         style="font-size:50px;marker:none"
         id="path3067"
         inkscape:connector-curvature="0" />
      <path
         d="m 637.84172,606.43157 c 0.39999,2e-5 0.84999,0.0334 1.35,0.1 0.53332,0.0334 1.04999,0.10002 1.55,0.2 0.49999,0.0667 0.94998,0.15002 1.35,0.25 0.43332,0.0667 0.74998,0.13336 0.95,0.2 l -0.8,4.05 c -0.36668,-0.13331 -0.98335,-0.28331 -1.85,-0.45 -0.83335,-0.19998 -1.91668,-0.29998 -3.25,-0.3 -0.86668,2e-5 -1.73334,0.10002 -2.6,0.3 -0.83334,0.16669 -1.38334,0.28335 -1.65,0.35 l 0,21.85 -4.65,0 0,-24.9 c 1.1,-0.39998 2.46666,-0.76664 4.1,-1.1 1.63333,-0.36664 3.46666,-0.54998 5.5,-0.55"
         style="font-size:50px;marker:none"
         id="path3069"
         inkscape:connector-curvature="0" />
      <path
         d="m 685.97766,619.98157 c -2e-5,2.06667 -0.30002,3.93334 -0.9,5.6 -0.60002,1.66667 -1.45002,3.1 -2.55,4.3 -1.06668,1.2 -2.35002,2.13333 -3.85,2.8 -1.50001,0.63333 -3.13335,0.95 -4.9,0.95 -1.76668,0 -3.40001,-0.31667 -4.9,-0.95 -1.5,-0.66667 -2.8,-1.6 -3.9,-2.8 -1.06667,-1.2 -1.9,-2.63333 -2.5,-4.3 -0.6,-1.66666 -0.9,-3.53333 -0.9,-5.6 0,-2.03332 0.3,-3.88332 0.9,-5.55 0.6,-1.69998 1.43333,-3.14998 2.5,-4.35 1.1,-1.19998 2.4,-2.11664 3.9,-2.75 1.49999,-0.66664 3.13332,-0.99998 4.9,-1 1.76665,2e-5 3.39999,0.33336 4.9,1 1.49998,0.63336 2.78332,1.55002 3.85,2.75 1.09998,1.20002 1.94998,2.65002 2.55,4.35 0.59998,1.66668 0.89998,3.51668 0.9,5.55 m -4.85,0 c -2e-5,-2.93332 -0.66668,-5.24998 -2,-6.95 -1.30001,-1.73331 -3.08335,-2.59998 -5.35,-2.6 -2.26667,2e-5 -4.06667,0.86669 -5.4,2.6 -1.3,1.70002 -1.95,4.01668 -1.95,6.95 0,2.93334 0.65,5.26667 1.95,7 1.33333,1.7 3.13333,2.55 5.4,2.55 2.26665,0 4.04999,-0.85 5.35,-2.55 1.33332,-1.73333 1.99998,-4.06666 2,-7"
         style="font-size:50px;marker:none"
         id="path3071"
         inkscape:connector-curvature="0" />
      <path
         d="m 728.53625,632.98157 c -0.93335,-2.4 -1.93335,-5.13333 -3,-8.2 -1.03335,-3.09999 -1.98335,-6.31665 -2.85,-9.65 -0.86668,3.33335 -1.81668,6.55001 -2.85,9.65 -1.03334,3.06667 -2.01668,5.8 -2.95,8.2 l -4.05,0 c -1.53334,-3.43333 -3.03333,-7.35 -4.5,-11.75 -1.46667,-4.39999 -2.85,-9.14998 -4.15,-14.25 l 5,0 c 0.33333,1.56669 0.73333,3.26669 1.2,5.1 0.46666,1.83335 0.95,3.66668 1.45,5.5 0.53333,1.83334 1.08333,3.60001 1.65,5.3 0.56666,1.70001 1.09999,3.18334 1.6,4.45 0.56666,-1.56666 1.11666,-3.21666 1.65,-4.95 0.56666,-1.76666 1.09999,-3.53332 1.6,-5.3 0.49999,-1.79998 0.96666,-3.54998 1.4,-5.25 0.46665,-1.73331 0.86665,-3.34998 1.2,-4.85 l 3.85,0 c 0.29998,1.50002 0.66665,3.11669 1.1,4.85 0.43332,1.70002 0.89998,3.45002 1.4,5.25 0.49998,1.76668 1.01665,3.53334 1.55,5.3 0.56665,1.73334 1.13331,3.38334 1.7,4.95 0.49998,-1.26666 1.01664,-2.74999 1.55,-4.45 0.56664,-1.69999 1.11664,-3.46666 1.65,-5.3 0.53331,-1.83332 1.03331,-3.66665 1.5,-5.5 0.46664,-1.83331 0.86664,-3.53331 1.2,-5.1 l 4.8,0 c -1.30003,5.10002 -2.68336,9.85001 -4.15,14.25 -1.46669,4.4 -2.96669,8.31667 -4.5,11.75 l -4.05,0"
         style="font-size:50px;marker:none"
         id="path3073"
         inkscape:connector-curvature="0" />
      <path
         d="m 770.40345,629.63157 c 1.09999,0 2.06666,-0.0167 2.9,-0.05 0.86665,-0.0667 1.58332,-0.16667 2.15,-0.3 l 0,-7.75 c -0.33335,-0.16666 -0.88335,-0.29999 -1.65,-0.4 -0.73334,-0.13332 -1.63334,-0.19999 -2.7,-0.2 -0.70001,1e-5 -1.45001,0.05 -2.25,0.15 -0.76667,0.10001 -1.48334,0.31668 -2.15,0.65 -0.63334,0.30001 -1.16667,0.73334 -1.6,1.3 -0.43334,0.53334 -0.65,1.25001 -0.65,2.15 0,1.66667 0.53333,2.83334 1.6,3.5 1.06666,0.63333 2.51666,0.95 4.35,0.95 m -0.4,-23.3 c 1.86666,2e-5 3.43332,0.25002 4.7,0.75 1.29999,0.46669 2.33332,1.15002 3.1,2.05 0.79998,0.86669 1.36665,1.91669 1.7,3.15 0.33332,1.20002 0.49998,2.53335 0.5,4 l 0,16.25 c -0.40002,0.0667 -0.96668,0.16666 -1.7,0.3 -0.70002,0.1 -1.50001,0.2 -2.4,0.3 -0.90001,0.1 -1.88335,0.18333 -2.95,0.25 -1.03334,0.1 -2.06668,0.15 -3.1,0.15 -1.46667,0 -2.81667,-0.15 -4.05,-0.45 -1.23334,-0.3 -2.3,-0.76667 -3.2,-1.4 -0.9,-0.66667 -1.6,-1.53333 -2.1,-2.6 -0.5,-1.06666 -0.75,-2.35 -0.75,-3.85 0,-1.43333 0.28334,-2.66666 0.85,-3.7 0.6,-1.03332 1.4,-1.86666 2.4,-2.5 1,-0.63332 2.16666,-1.09999 3.5,-1.4 1.33333,-0.29999 2.73333,-0.44999 4.2,-0.45 0.46666,1e-5 0.94999,0.0334 1.45,0.1 0.49999,0.0334 0.96666,0.10001 1.4,0.2 0.46665,0.0667 0.86665,0.13335 1.2,0.2 0.33332,0.0667 0.56665,0.11668 0.7,0.15 l 0,-1.3 c -10e-6,-0.76665 -0.0833,-1.51665 -0.25,-2.25 -0.16668,-0.76665 -0.46668,-1.43332 -0.9,-2 -0.43335,-0.59998 -1.03334,-1.06665 -1.8,-1.4 -0.73334,-0.36665 -1.70001,-0.54998 -2.9,-0.55 -1.53334,2e-5 -2.88334,0.11669 -4.05,0.35 -1.13334,0.20002 -1.98333,0.41669 -2.55,0.65 l -0.55,-3.85 c 0.6,-0.26664 1.6,-0.51664 3,-0.75 1.4,-0.26664 2.91666,-0.39998 4.55,-0.4"
         style="font-size:50px;marker:none"
         id="path3075"
         inkscape:connector-curvature="0" />
      <path
         d="m 822.64641,606.98157 c -1.30003,4.86669 -2.83336,9.53335 -4.6,14 -1.73336,4.46667 -3.41669,8.46667 -5.05,12 l -4.2,0 c -1.63335,-3.53333 -3.33335,-7.53333 -5.1,-12 -1.73334,-4.46665 -3.25001,-9.13331 -4.55,-14 l 5,0 c 0.39999,1.63336 0.86666,3.38335 1.4,5.25 0.56665,1.83335 1.14999,3.66668 1.75,5.5 0.63332,1.80001 1.26665,3.55001 1.9,5.25 0.63332,1.70001 1.23332,3.21667 1.8,4.55 0.56665,-1.33333 1.16665,-2.84999 1.8,-4.55 0.63331,-1.69999 1.24998,-3.44999 1.85,-5.25 0.63331,-1.83332 1.21664,-3.66665 1.75,-5.5 0.56664,-1.86665 1.04998,-3.61664 1.45,-5.25 l 4.8,0"
         style="font-size:50px;marker:none"
         id="path3077"
         inkscape:connector-curvature="0" />
      <path
         d="m 840.76048,620.03157 c 0,-2.29999 0.33333,-4.29999 1,-6 0.66666,-1.73332 1.54999,-3.16665 2.65,-4.3 1.09999,-1.13331 2.36666,-1.98331 3.8,-2.55 1.43332,-0.56664 2.89999,-0.84998 4.4,-0.85 3.49998,2e-5 6.18331,1.10002 8.05,3.3 1.86664,2.16669 2.79997,5.48335 2.8,9.95 -3e-5,0.20001 -3e-5,0.46668 0,0.8 -3e-5,0.30001 -0.0167,0.58334 -0.05,0.85 l -17.8,0 c 0.19999,2.70001 0.98332,4.75 2.35,6.15 1.36666,1.4 3.49999,2.1 6.4,2.1 1.63332,0 2.99998,-0.13333 4.1,-0.4 1.13331,-0.3 1.98331,-0.58333 2.55,-0.85 l 0.65,3.9 c -0.56669,0.3 -1.56669,0.61666 -3,0.95 -1.40002,0.33333 -3.00002,0.5 -4.8,0.5 -2.26668,0 -4.23335,-0.33334 -5.9,-1 -1.63334,-0.7 -2.98334,-1.65 -4.05,-2.85 -1.06667,-1.2 -1.86667,-2.61666 -2.4,-4.25 -0.5,-1.66666 -0.75,-3.48332 -0.75,-5.45 m 17.85,-2.55 c 0.0333,-2.09999 -0.50002,-3.81665 -1.6,-5.15 -1.06668,-1.36665 -2.55002,-2.04998 -4.45,-2.05 -1.06668,2e-5 -2.01668,0.21669 -2.85,0.65 -0.80001,0.40002 -1.48334,0.93335 -2.05,1.6 -0.56668,0.66668 -1.01668,1.43335 -1.35,2.3 -0.30001,0.86668 -0.50001,1.75001 -0.6,2.65 l 12.9,0"
         style="font-size:50px;marker:none"
         id="path3079"
         inkscape:connector-curvature="0" />
    </g>
  </g>
  <g
     inkscape:groupmode="layer"
     id="layer2"
     inkscape:label="Layer"
     style="display:none"
     transform="translate(-501.74954,-595.59638)">
    <g
       style="display:inline"
       id="g3961">
      <path
         transform="translate(-8.8620388,8.4234951)"
         d="m 276.42856,285.21933 c 0,1.38071 -1.11929,2.5 -2.5,2.5 -1.38071,0 -2.5,-1.11929 -2.5,-2.5 0,-1.38071 1.11929,-2.5 2.5,-2.5 1.38071,0 2.5,1.11929 2.5,2.5 z"
         sodipodi:ry="2.5"
         sodipodi:rx="2.5"
         sodipodi:cy="285.21933"
         sodipodi:cx="273.92856"
         id="path3915"
         style="fill:#000000;fill-opacity:0.98421056;stroke:#000000;stroke-width:5;stroke-miterlimit:4;stroke-opacity:1;stroke-dasharray:none;stroke-dashoffset:0"
         sodipodi:type="arc" />
      <path
         transform="translate(-1.8454367,-7.1301728)"
         d="m 276.42856,285.21933 c 0,1.38071 -1.11929,2.5 -2.5,2.5 -1.38071,0 -2.5,-1.11929 -2.5,-2.5 0,-1.38071 1.11929,-2.5 2.5,-2.5 1.38071,0 2.5,1.11929 2.5,2.5 z"
         sodipodi:ry="2.5"
         sodipodi:rx="2.5"
         sodipodi:cy="285.21933"
         sodipodi:cx="273.92856"
         id="path3915-6"
         style="fill:#000000;fill-opacity:0.98421056;stroke:#000000;stroke-width:5;stroke-miterlimit:4;stroke-opacity:1;stroke-dasharray:none;stroke-dashoffset:0"
         sodipodi:type="arc" />
      <path
         transform="matrix(1.630657,0,0,1.5406966,-185.43181,-178.63676)"
         d="m 276.42856,285.21933 c 0,1.38071 -1.11929,2.5 -2.5,2.5 -1.38071,0 -2.5,-1.11929 -2.5,-2.5 0,-1.38071 1.11929,-2.5 2.5,-2.5 1.38071,0 2.5,1.11929 2.5,2.5 z"
         sodipodi:ry="2.5"
         sodipodi:rx="2.5"
         sodipodi:cy="285.21933"
         sodipodi:cx="273.92856"
         id="path3915-65"
         style="fill:#000000;fill-opacity:0.98421056;stroke:#000000;stroke-width:5;stroke-miterlimit:4;stroke-opacity:1;stroke-dasharray:none;stroke-dashoffset:0"
         sodipodi:type="arc" />
    </g>
    <path
       style="fill:none;stroke:#000000;stroke-width:1px;stroke-linecap:butt;stroke-linejoin:miter;stroke-opacity:1;display:inline"
       d="m 137.14286,244.1479 c 20.61384,-35.70421 20.89286,-34.82143 20.89286,-34.82143 l 12.32143,17.14285"
       id="path3131"
       inkscape:connector-curvature="0" />
    <path
       style="fill:none;stroke:#000000;stroke-width:1px;stroke-linecap:butt;stroke-linejoin:miter;stroke-opacity:1;display:inline"
       d="m 283.57143,221.6479 c -50.53572,-54.82143 -50.53572,-54.82143 -50.53572,-54.82143 l -11.25,16.96428"
       id="path3133"
       inkscape:connector-curvature="0" />
    <path
       style="fill:none;stroke:#000000;stroke-width:1px;stroke-linecap:butt;stroke-linejoin:miter;stroke-opacity:1;display:inline"
       d="m 195.53571,191.38102 c 20.61384,-35.70421 20.89286,-34.82143 20.89286,-34.82143 L 228.75,173.70244"
       id="path3131-0"
       inkscape:connector-curvature="0" />
  </g>
</svg>
