<?xml version="1.0" encoding="UTF-8" standalone="no"?>
<!-- Created with Inkscape (http://www.inkscape.org/) -->

<svg
   xmlns:dc="http://purl.org/dc/elements/1.1/"
   xmlns:cc="http://creativecommons.org/ns#"
   xmlns:rdf="http://www.w3.org/1999/02/22-rdf-syntax-ns#"
   xmlns:svg="http://www.w3.org/2000/svg"
   xmlns="http://www.w3.org/2000/svg"
   xmlns:sodipodi="http://sodipodi.sourceforge.net/DTD/sodipodi-0.dtd"
   xmlns:inkscape="http://www.inkscape.org/namespaces/inkscape"
   width="794.42639"
   height="40.06646"
   id="svg2"
   version="1.1"
   inkscape:version="0.48.4 r9939"
   sodipodi:docname="810_md.svg"
   inkscape:export-filename="/home/alex/Dropbox/810labs/logo/810logo_squarish.png"
   inkscape:export-xdpi="300"
   inkscape:export-ydpi="300">
  <defs
     id="defs4" />
  <sodipodi:namedview
     id="base"
     pagecolor="#ffffff"
     bordercolor="#666666"
     borderopacity="1.0"
     inkscape:pageopacity="0.0"
     inkscape:pageshadow="2"
     inkscape:zoom="2"
     inkscape:cx="444.52346"
     inkscape:cy="-51.61973"
     inkscape:document-units="px"
     inkscape:current-layer="layer1"
     showgrid="false"
     inkscape:window-width="1985"
     inkscape:window-height="1304"
     inkscape:window-x="272"
     inkscape:window-y="124"
     inkscape:window-maximized="0"
     fit-margin-top="0"
     fit-margin-left="0"
     fit-margin-right="0"
     fit-margin-bottom="0"
     inkscape:snap-to-guides="true"
     inkscape:snap-grids="true"
     inkscape:snap-page="true"
     inkscape:snap-center="true"
     inkscape:snap-object-midpoints="true"
     inkscape:snap-midpoints="true"
     inkscape:snap-smooth-nodes="true"
     inkscape:object-nodes="true"
     inkscape:snap-bbox="true"
     showguides="true"
     inkscape:guide-bbox="true"
     units="in" />
  <metadata
     id="metadata7">
    <rdf:RDF>
      <cc:Work
         rdf:about="">
        <dc:format>image/svg+xml</dc:format>
        <dc:type
           rdf:resource="http://purl.org/dc/dcmitype/StillImage" />
        <dc:title />
      </cc:Work>
    </rdf:RDF>
  </metadata>
  <g
     inkscape:label="Layer 1"
     inkscape:groupmode="layer"
     id="layer1"
     style="display:inline"
     transform="translate(-440.7909,-593.56513)">
    <text
       xml:space="preserve"
       style="font-size:20px;font-style:normal;font-variant:normal;font-weight:normal;font-stretch:normal;line-height:125%;letter-spacing:0px;word-spacing:0px;fill:#000000;fill-opacity:1;stroke:none;font-family:Bitstream Charter;-inkscape-font-specification:Bitstream Charter"
       x="301.53055"
       y="267.97873"
       id="text2999"
       sodipodi:linespacing="125%"><tspan
         sodipodi:role="line"
         id="tspan3001"
         x="301.53055"
         y="267.97873" /></text>
    <text
       xml:space="preserve"
       style="font-size:20px;font-style:normal;font-variant:normal;font-weight:bold;font-stretch:condensed;line-height:125%;letter-spacing:3.49000001px;word-spacing:0px;fill:#000000;fill-opacity:1;stroke:none;font-family:Liberation Sans Narrow;-inkscape-font-specification:Liberation Sans Narrow Bold Condensed"
       x="228.29448"
       y="104.02033"
       id="text4248"
       sodipodi:linespacing="125%"
       transform="translate(145.96113,206.87869)"><tspan
         sodipodi:role="line"
         id="tspan4250"
         x="228.29448"
         y="104.02033" /></text>
    <text
       xml:space="preserve"
       style="font-size:20px;font-style:normal;font-variant:normal;font-weight:bold;font-stretch:condensed;line-height:125%;letter-spacing:3.49000001px;word-spacing:0px;fill:#000000;fill-opacity:1;stroke:none;font-family:Liberation Sans Narrow;-inkscape-font-specification:Liberation Sans Narrow Bold Condensed"
       x="195.96959"
       y="180.79193"
       id="text4273"
       sodipodi:linespacing="125%"
       transform="translate(145.96113,206.87869)"><tspan
         sodipodi:role="line"
         id="tspan4275"
         x="195.96959"
         y="180.79193" /></text>
    <flowRoot
       xml:space="preserve"
       id="flowRoot4397"
       style="font-size:20px;font-style:normal;font-variant:normal;font-weight:normal;font-stretch:normal;line-height:125%;letter-spacing:3.49000001px;word-spacing:0px;fill:#000000;fill-opacity:1;stroke:none;font-family:Bitstream Charter;-inkscape-font-specification:Bitstream Charter"
       transform="translate(-247.81152,-37.190643)"><flowRegion
         id="flowRegion4399"><rect
           id="rect4401"
           width="49.143921"
           height="29.344931"
           x="767.74121"
           y="572.56171" /></flowRegion><flowPara
         id="flowPara4403" /></flowRoot>    <g
       style="font-size:50.78132629px;font-style:normal;font-variant:normal;font-weight:normal;font-stretch:normal;text-indent:0;text-align:start;text-decoration:none;line-height:100%;letter-spacing:16.29233551px;word-spacing:0px;text-transform:none;direction:ltr;block-progression:tb;writing-mode:lr-tb;text-anchor:start;baseline-shift:baseline;color:#000000;fill:#000000;fill-opacity:1;fill-rule:nonzero;stroke:none;stroke-width:1px;marker:none;visibility:visible;display:inline;overflow:visible;enable-background:accumulate;font-family:Ubuntu;-inkscape-font-specification:Ubuntu"
       id="text4044">
      <path
         d="m 457.54874,628.09643 c -0.33857,-0.8125 -0.7956,-1.84505 -1.3711,-3.09766 -0.54169,-1.2526 -1.13413,-2.60677 -1.77735,-4.06251 -0.64324,-1.45572 -1.33725,-2.9453 -2.08203,-4.46876 -0.71095,-1.55727 -1.38804,-3.013 -2.03125,-4.36719 -0.64325,-1.388 -1.25262,-2.62368 -1.82813,-3.70704 -0.54168,-1.08331 -0.98178,-1.91273 -1.32032,-2.48828 -0.3724,3.99482 -0.67709,8.32815 -0.91406,13.00002 -0.23699,4.63804 -0.44011,9.32684 -0.60938,14.06643 l -4.82422,0 c 0.13541,-3.04688 0.28776,-6.11068 0.45703,-9.19142 0.16927,-3.11458 0.35547,-6.16146 0.5586,-9.14064 0.23697,-3.01301 0.47395,-5.94139 0.71093,-8.78517 0.27083,-2.84373 0.55859,-5.53513 0.86329,-8.07423 l 4.31641,0 c 0.91405,1.48962 1.89582,3.25003 2.94532,5.28125 1.04946,2.03129 2.09894,4.1641 3.14844,6.39845 1.04946,2.20055 2.06509,4.418 3.04688,6.65236 0.98175,2.20053 1.87889,4.21486 2.69141,6.04297 0.81248,-1.82811 1.70961,-3.84244 2.69141,-6.04297 0.98174,-2.23436 1.99737,-4.45181 3.04688,-6.65236 1.04945,-2.23435 2.09893,-4.36716 3.14844,-6.39845 1.04945,-2.03122 2.03122,-3.79163 2.94532,-5.28125 l 4.31641,0 c 1.151,11.34118 2.01429,23.07166 2.58985,35.19146 l -4.82423,0 c -0.16931,-4.73959 -0.37243,-9.42839 -0.60937,-14.06643 -0.23702,-4.67187 -0.54171,-9.0052 -0.91407,-13.00002 -0.33857,0.57555 -0.79561,1.40497 -1.37109,2.48828 -0.5417,1.08336 -1.13415,2.31904 -1.77735,3.70704 -0.64326,1.35419 -1.33727,2.80992 -2.08203,4.36719 -0.71097,1.52346 -1.38806,3.01304 -2.03126,4.46876 -0.64325,1.45574 -1.25263,2.80991 -1.82813,4.06251 -0.54169,1.25261 -0.98179,2.28516 -1.32031,3.09766 l -3.96094,0"
         style="marker:none"
         id="path4194"
         inkscape:connector-curvature="0" />
      <path
         d="m 510.9162,629.56909 c 1.11717,0 2.09895,-0.0169 2.94532,-0.0508 0.88019,-0.0677 1.60805,-0.16927 2.18359,-0.30469 l 0,-7.87111 c -0.33856,-0.16926 -0.89715,-0.30467 -1.67578,-0.40625 -0.74481,-0.1354 -1.65887,-0.20311 -2.74219,-0.20312 -0.71095,10e-6 -1.47267,0.0508 -2.28516,0.15234 -0.77866,0.10157 -1.50652,0.32163 -2.1836,0.66016 -0.64324,0.3047 -1.1849,0.7448 -1.625,1.32031 -0.44011,0.54168 -0.66017,1.26954 -0.66016,2.1836 -1e-5,1.69272 0.54166,2.87761 1.625,3.55469 1.08333,0.64324 2.55599,0.96485 4.41798,0.96485 m -0.40625,-23.6641 c 1.89582,3e-5 3.48697,0.25393 4.77344,0.76172 1.3203,0.47398 2.36978,1.16799 3.14845,2.08203 0.81248,0.88024 1.388,1.94664 1.72656,3.19923 0.33852,1.21877 0.50779,2.57294 0.50781,4.0625 l 0,16.50393 c -0.40627,0.0677 -0.98179,0.16927 -1.72656,0.30469 -0.71096,0.10156 -1.52346,0.20313 -2.4375,0.30469 -0.91409,0.10156 -1.91278,0.1862 -2.9961,0.25391 -1.0495,0.10156 -2.09898,0.15234 -3.14845,0.15234 -1.48959,0 -2.86069,-0.15234 -4.11328,-0.45703 -1.25262,-0.30469 -2.33595,-0.77865 -3.25001,-1.42188 -0.91407,-0.67708 -1.625,-1.55729 -2.13281,-2.64063 -0.50782,-1.08333 -0.76173,-2.38671 -0.76172,-3.91016 -1e-5,-1.45572 0.28776,-2.70833 0.86328,-3.75782 0.60937,-1.04947 1.42187,-1.89582 2.4375,-2.53906 1.01562,-0.64322 2.20052,-1.11718 3.5547,-1.42188 1.35415,-0.30467 2.77603,-0.45702 4.26563,-0.45703 0.47394,10e-6 0.96483,0.0339 1.47266,0.10156 0.50779,0.0339 0.98175,0.10158 1.42187,0.20312 0.47395,0.0677 0.8802,0.13544 1.21875,0.20313 0.33853,0.0677 0.57551,0.1185 0.71094,0.15234 l 0,-1.32031 c -10e-6,-0.77863 -0.0847,-1.54035 -0.2539,-2.28516 -0.16929,-0.77863 -0.47398,-1.45571 -0.91407,-2.03125 -0.44012,-0.60936 -1.04949,-1.08332 -1.82813,-1.42188 -0.7448,-0.37237 -1.72657,-0.55857 -2.94531,-0.5586 -1.55731,3e-5 -2.9284,0.11852 -4.11329,0.35547 -1.15105,0.20315 -2.01433,0.4232 -2.58985,0.66016 l -0.55859,-3.91016 c 0.60937,-0.27081 1.62499,-0.52471 3.04688,-0.76172 1.42187,-0.27081 2.96223,-0.40622 4.6211,-0.40625"
         style="marker:none"
         id="path4196"
         inkscape:connector-curvature="0" />
      <path
         d="m 549.17067,606.56515 10.00392,0 0,3.96094 -10.00392,0 0,12.18752 c -10e-6,1.32032 0.10155,2.42058 0.30468,3.30078 0.20312,0.84637 0.50781,1.52345 0.91407,2.03126 0.40624,0.47396 0.91405,0.8125 1.52344,1.01562 0.60936,0.20313 1.3203,0.30469 2.13281,0.30469 1.42187,0 2.55598,-0.15234 3.40235,-0.45703 0.8802,-0.33854 1.48957,-0.57552 1.82813,-0.71094 l 0.91406,3.91016 c -0.47397,0.23698 -1.3034,0.52474 -2.48828,0.86329 -1.18491,0.37239 -2.53908,0.55859 -4.06251,0.55859 -1.79428,0 -3.28387,-0.22005 -4.46875,-0.66016 -1.15105,-0.47396 -2.08204,-1.16797 -2.79298,-2.08203 -0.71094,-0.91406 -1.21875,-2.03125 -1.52344,-3.35157 -0.27083,-1.35416 -0.40625,-2.91145 -0.40625,-4.67188 l 0,-23.56254 4.72267,-0.8125 0,8.1758"
         style="marker:none"
         id="path4198"
         inkscape:connector-curvature="0" />
      <path
         d="m 581.47657,632.97144 0,-38.59381 4.72266,-0.8125 0,13.50783 c 0.8802,-0.33852 1.81119,-0.59242 2.79297,-0.76172 1.01562,-0.2031 2.01432,-0.30466 2.9961,-0.30469 2.09895,3e-5 3.84244,0.30472 5.23048,0.91407 1.388,0.57554 2.48826,1.40497 3.30079,2.48828 0.84633,1.0495 1.43878,2.31904 1.77734,3.8086 0.33852,1.4896 0.50779,3.13153 0.50782,4.92579 l 0,14.82815 -4.72267,0 0,-13.81253 c -2e-5,-1.62498 -0.11851,-3.013 -0.35547,-4.16406 -0.20314,-1.15103 -0.55861,-2.08202 -1.0664,-2.79298 -0.50784,-0.71091 -1.18492,-1.21873 -2.03126,-1.52344 -0.84637,-0.33852 -1.89585,-0.50779 -3.14844,-0.50781 -0.50783,2e-5 -1.03257,0.0339 -1.57422,0.10156 -0.54168,0.0677 -1.06642,0.15237 -1.57422,0.25391 -0.47397,0.0677 -0.91408,0.15237 -1.32032,0.25391 -0.3724,0.10158 -0.64324,0.18622 -0.8125,0.2539 l 0,21.93754 -4.72266,0"
         style="marker:none"
         id="path4200"
         inkscape:connector-curvature="0" />
      <path
         d="m 625.25748,619.81907 c 0,-2.33592 0.33854,-4.36717 1.01563,-6.09376 0.67708,-1.7604 1.57421,-3.21613 2.69141,-4.36719 1.11718,-1.15102 2.40364,-2.0143 3.85938,-2.58985 1.45572,-0.57549 2.9453,-0.86325 4.46876,-0.86328 3.55467,3e-5 6.27993,1.11721 8.17579,3.35157 1.89581,2.20054 2.84373,5.56903 2.84375,10.10548 -2e-5,0.20314 -2e-5,0.47397 0,0.8125 -2e-5,0.3047 -0.0169,0.59246 -0.0508,0.86328 l -18.07815,0 c 0.20312,2.7422 0.99869,4.82424 2.38672,6.24611 1.38801,1.42188 3.55468,2.13282 6.50001,2.13281 1.65884,10e-6 3.04686,-0.13541 4.16407,-0.40625 1.15102,-0.30468 2.0143,-0.59244 2.58985,-0.86328 l 0.66016,3.96094 c -0.57555,0.30469 -1.59118,0.62631 -3.04688,0.96485 -1.4219,0.33854 -3.0469,0.50781 -4.87501,0.50781 -2.3021,0 -4.2995,-0.33854 -5.9922,-1.01563 -1.65886,-0.71093 -3.02996,-1.67578 -4.11329,-2.89453 -1.08334,-1.21875 -1.89584,-2.65755 -2.4375,-4.31641 -0.50782,-1.6927 -0.76172,-3.53776 -0.76172,-5.53517 m 18.12893,-2.58985 c 0.0338,-2.13279 -0.50783,-3.87628 -1.625,-5.23047 -1.08335,-1.388 -2.58986,-2.08201 -4.51954,-2.08204 -1.08334,3e-5 -2.04819,0.22008 -2.89453,0.66016 -0.81251,0.40627 -1.50652,0.94794 -2.08204,1.625 -0.57553,0.67711 -1.03256,1.45575 -1.37109,2.33594 -0.3047,0.88023 -0.50782,1.77737 -0.60938,2.69141 l 13.10158,0"
         style="marker:none"
         id="path4202"
         inkscape:connector-curvature="0" />
      <path
         d="m 671.3886,607.32687 c 1.08333,-0.27081 2.50521,-0.55857 4.26563,-0.86329 1.79427,-0.30466 3.85937,-0.457 6.19532,-0.45703 1.6927,3e-5 3.11458,0.23701 4.26564,0.71094 1.15102,0.44013 2.11586,1.10029 2.89453,1.98047 0.23696,-0.16925 0.60936,-0.40622 1.11719,-0.71094 0.50779,-0.30466 1.13409,-0.59242 1.87891,-0.86328 0.74477,-0.30466 1.5742,-0.55857 2.48829,-0.76172 0.91403,-0.23695 1.8958,-0.35544 2.94531,-0.35547 2.03122,3e-5 3.69008,0.30472 4.97657,0.91407 1.28643,0.57554 2.28512,1.40497 2.9961,2.48828 0.74475,1.08336 1.23564,2.36982 1.47266,3.85938 0.27079,1.4896 0.40621,3.11461 0.40625,4.87501 l 0,14.82815 -4.72266,0 0,-13.81253 c -4e-5,-1.55727 -0.0847,-2.89451 -0.25391,-4.01172 -0.13545,-1.11717 -0.42321,-2.04816 -0.86328,-2.79297 -0.40629,-0.74477 -0.98181,-1.28644 -1.72657,-1.62501 -0.71097,-0.37237 -1.64196,-0.55857 -2.79297,-0.55859 -1.59118,2e-5 -2.91149,0.22008 -3.96094,0.66016 -1.01566,0.40627 -1.70967,0.77867 -2.08204,1.11719 0.27081,0.88023 0.47394,1.84507 0.60938,2.89453 0.13539,1.0495 0.2031,2.14976 0.20312,3.30079 l 0,14.82815 -4.72266,0 0,-13.81253 c -2e-5,-1.55727 -0.0847,-2.89451 -0.25391,-4.01172 -0.16929,-1.11717 -0.47398,-2.04816 -0.91406,-2.79297 -0.40627,-0.74477 -0.98179,-1.28644 -1.72657,-1.62501 -0.71095,-0.37237 -1.62501,-0.55857 -2.74219,-0.55859 -0.47397,2e-5 -0.98178,0.017 -1.52344,0.0508 -0.54168,0.0339 -1.06642,0.0847 -1.57422,0.15235 -0.47397,0.0339 -0.91407,0.0847 -1.32031,0.15234 -0.40626,0.0677 -0.6771,0.11851 -0.8125,0.15234 l 0,22.29301 -4.72267,0 0,-25.64457"
         style="marker:none"
         id="path4204"
         inkscape:connector-curvature="0" />
      <path
         d="m 740.35784,629.56909 c 1.11717,0 2.09894,-0.0169 2.94532,-0.0508 0.88019,-0.0677 1.60805,-0.16927 2.18359,-0.30469 l 0,-7.87111 c -0.33856,-0.16926 -0.89715,-0.30467 -1.67578,-0.40625 -0.74481,-0.1354 -1.65887,-0.20311 -2.74219,-0.20312 -0.71095,10e-6 -1.47267,0.0508 -2.28516,0.15234 -0.77866,0.10157 -1.50653,0.32163 -2.1836,0.66016 -0.64324,0.3047 -1.18491,0.7448 -1.625,1.32031 -0.44011,0.54168 -0.66017,1.26954 -0.66016,2.1836 -10e-6,1.69272 0.54166,2.87761 1.625,3.55469 1.08333,0.64324 2.55599,0.96485 4.41798,0.96485 m -0.40625,-23.6641 c 1.89582,3e-5 3.48697,0.25393 4.77344,0.76172 1.3203,0.47398 2.36978,1.16799 3.14844,2.08203 0.81248,0.88024 1.38801,1.94664 1.72657,3.19923 0.33852,1.21877 0.50779,2.57294 0.50781,4.0625 l 0,16.50393 c -0.40627,0.0677 -0.98179,0.16927 -1.72656,0.30469 -0.71096,0.10156 -1.52346,0.20313 -2.43751,0.30469 -0.91408,0.10156 -1.91278,0.1862 -2.99609,0.25391 -1.0495,0.10156 -2.09898,0.15234 -3.14845,0.15234 -1.48959,0 -2.86069,-0.15234 -4.11328,-0.45703 -1.25262,-0.30469 -2.33595,-0.77865 -3.25001,-1.42188 -0.91407,-0.67708 -1.625,-1.55729 -2.13281,-2.64063 -0.50782,-1.08333 -0.76173,-2.38671 -0.76172,-3.91016 -10e-6,-1.45572 0.28775,-2.70833 0.86328,-3.75782 0.60937,-1.04947 1.42187,-1.89582 2.4375,-2.53906 1.01562,-0.64322 2.20052,-1.11718 3.55469,-1.42188 1.35416,-0.30467 2.77604,-0.45702 4.26564,-0.45703 0.47394,10e-6 0.96483,0.0339 1.47265,0.10156 0.5078,0.0339 0.98176,0.10158 1.42188,0.20312 0.47394,0.0677 0.88019,0.13544 1.21875,0.20313 0.33853,0.0677 0.57551,0.1185 0.71094,0.15234 l 0,-1.32031 c -2e-5,-0.77863 -0.0847,-1.54035 -0.2539,-2.28516 -0.16929,-0.77863 -0.47398,-1.45571 -0.91407,-2.03125 -0.44012,-0.60936 -1.0495,-1.08332 -1.82813,-1.42188 -0.7448,-0.37237 -1.72657,-0.55857 -2.94531,-0.5586 -1.55731,3e-5 -2.9284,0.11852 -4.11329,0.35547 -1.15105,0.20315 -2.01433,0.4232 -2.58985,0.66016 l -0.55859,-3.91016 c 0.60937,-0.27081 1.62499,-0.52471 3.04688,-0.76172 1.42186,-0.27081 2.96223,-0.40622 4.6211,-0.40625"
         style="marker:none"
         id="path4206"
         inkscape:connector-curvature="0" />
      <path
         d="m 778.61229,606.56515 10.00392,0 0,3.96094 -10.00392,0 0,12.18752 c -10e-6,1.32032 0.10155,2.42058 0.30468,3.30078 0.20312,0.84637 0.50781,1.52345 0.91407,2.03126 0.40624,0.47396 0.91405,0.8125 1.52344,1.01562 0.60936,0.20313 1.3203,0.30469 2.13281,0.30469 1.42187,0 2.55598,-0.15234 3.40235,-0.45703 0.8802,-0.33854 1.48957,-0.57552 1.82813,-0.71094 l 0.91406,3.91016 c -0.47397,0.23698 -1.3034,0.52474 -2.48828,0.86329 -1.18491,0.37239 -2.53908,0.55859 -4.06251,0.55859 -1.79428,0 -3.28387,-0.22005 -4.46875,-0.66016 -1.15105,-0.47396 -2.08204,-1.16797 -2.79298,-2.08203 -0.71094,-0.91406 -1.21875,-2.03125 -1.52344,-3.35157 -0.27083,-1.35416 -0.40625,-2.91145 -0.40625,-4.67188 l 0,-23.56254 4.72267,-0.8125 0,8.1758"
         style="marker:none"
         id="path4208"
         inkscape:connector-curvature="0" />
      <path
         d="m 815.64088,632.97144 -4.72266,0 0,-26.40629 4.72266,0 0,26.40629 m -2.38672,-31.17974 c -0.84636,3e-5 -1.57423,-0.2708 -2.1836,-0.8125 -0.57552,-0.57549 -0.86328,-1.33721 -0.86328,-2.28516 0,-0.94788 0.28776,-1.69267 0.86328,-2.23438 0.60937,-0.57548 1.33724,-0.86324 2.1836,-0.86328 0.84635,4e-5 1.55729,0.2878 2.13282,0.86328 0.60936,0.54171 0.91405,1.2865 0.91406,2.23438 -10e-6,0.94795 -0.3047,1.70967 -0.91406,2.28516 -0.57553,0.5417 -1.28647,0.81253 -2.13282,0.8125"
         style="marker:none"
         id="path4210"
         inkscape:connector-curvature="0" />
      <path
         d="m 851.58083,633.58081 c -2.13283,0 -4.01173,-0.33854 -5.63672,-1.01563 -1.59116,-0.67708 -2.94533,-1.625 -4.06251,-2.84375 -1.08334,-1.21875 -1.89584,-2.65755 -2.4375,-4.31641 -0.54167,-1.6927 -0.81251,-3.55468 -0.8125,-5.58595 -1e-5,-2.03124 0.28775,-3.89322 0.86328,-5.58594 0.60937,-1.69269 1.45572,-3.14842 2.53906,-4.3672 1.08333,-1.25258 2.40365,-2.21742 3.96095,-2.89453 1.59113,-0.71092 3.35155,-1.06638 5.28126,-1.06641 1.18488,3e-5 2.36977,0.10159 3.55469,0.30469 1.18488,0.20315 2.31899,0.52476 3.40235,0.96484 l -1.06641,4.01173 c -0.71096,-0.33852 -1.54039,-0.60936 -2.48829,-0.8125 -0.91408,-0.20311 -1.89585,-0.30467 -2.94531,-0.30469 -2.64064,2e-5 -4.6719,0.82945 -6.09376,2.48828 -1.38803,1.65888 -2.08204,4.07945 -2.08204,7.26173 0,1.42189 0.15234,2.72528 0.45704,3.91016 0.33853,1.18491 0.84634,2.20054 1.52344,3.04688 0.71092,0.84636 1.60806,1.50652 2.69141,1.98048 1.08332,0.4401 2.40363,0.66016 3.96094,0.66015 1.25259,10e-6 2.3867,-0.11848 3.40235,-0.35547 1.0156,-0.23697 1.81118,-0.49088 2.38672,-0.76172 l 0.66016,3.96095 c -0.27086,0.16927 -0.66018,0.33854 -1.16797,0.50781 -0.50784,0.13542 -1.08336,0.25391 -1.72657,0.35547 -0.64325,0.13542 -1.33726,0.23698 -2.08203,0.30469 -0.71096,0.10156 -1.40497,0.15234 -2.08204,0.15234"
         style="marker:none"
         id="path4212"
         inkscape:connector-curvature="0" />
      <path
         d="m 886.1465,629.56909 c 1.92968,0 3.35155,-0.25391 4.26563,-0.76172 0.9479,-0.50781 1.42186,-1.32031 1.42188,-2.43751 -2e-5,-1.15103 -0.45705,-2.0651 -1.3711,-2.74219 -0.91408,-0.67707 -2.42059,-1.43879 -4.51954,-2.28516 -1.01563,-0.40624 -1.9974,-0.81249 -2.94531,-1.21875 -0.91407,-0.44009 -1.70965,-0.9479 -2.38672,-1.52344 -0.67709,-0.57551 -1.21876,-1.26952 -1.62501,-2.08203 -0.40625,-0.81249 -0.60938,-1.81119 -0.60937,-2.9961 -1e-5,-2.33592 0.86328,-4.18097 2.58984,-5.53517 1.72656,-1.38799 4.07943,-2.082 7.05861,-2.08203 0.74478,3e-5 1.48957,0.0508 2.23438,0.15234 0.74477,0.0677 1.43879,0.1693 2.08203,0.30469 0.64321,0.10159 1.20181,0.22008 1.67579,0.35547 0.50779,0.13544 0.89711,0.25393 1.16797,0.35547 l -0.86329,4.06251 c -0.50783,-0.27082 -1.3034,-0.54165 -2.38672,-0.81251 -1.08335,-0.30466 -2.38674,-0.457 -3.91016,-0.45703 -1.32033,3e-5 -2.47137,0.27086 -3.45313,0.8125 -0.98178,0.50784 -1.47267,1.32034 -1.47266,2.43751 -10e-6,0.57554 0.10156,1.08335 0.30469,1.52344 0.23697,0.44012 0.57551,0.84637 1.01562,1.21875 0.47395,0.33856 1.04948,0.66017 1.72657,0.96484 0.67707,0.30471 1.48957,0.62632 2.4375,0.96485 1.2526,0.47397 2.36978,0.94793 3.35157,1.42188 0.98176,0.44011 1.81118,0.96485 2.48829,1.57422 0.71092,0.60938 1.25258,1.35418 1.625,2.23438 0.37237,0.84636 0.55857,1.89584 0.55859,3.14844 -2e-5,2.43751 -0.91408,4.28256 -2.74219,5.53516 -1.79429,1.25261 -4.36721,1.87891 -7.71876,1.87891 -2.33595,0 -4.16408,-0.20312 -5.48438,-0.60937 -1.32032,-0.3724 -2.21746,-0.66016 -2.69141,-0.86329 l 0.86328,-4.0625 c 0.54166,0.20313 1.40494,0.50781 2.58985,0.91406 1.18489,0.40625 2.75911,0.60938 4.72266,0.60938"
         style="marker:none"
         id="path4214"
         inkscape:connector-curvature="0" />
      <path
         d="m 976.10296,615.35032 c -4e-5,3.04689 -0.474,5.70444 -1.42188,7.97266 -0.94795,2.23439 -2.28519,4.09637 -4.01173,5.58595 -1.72659,1.45573 -3.79169,2.55599 -6.19532,3.30079 -2.40367,0.71093 -5.04429,1.0664 -7.92189,1.0664 -1.42188,0 -2.9961,-0.0677 -4.72266,-0.20312 -1.69272,-0.10156 -3.23308,-0.32162 -4.6211,-0.66016 l 0,-34.12505 c 1.38802,-0.33851 2.92838,-0.55856 4.6211,-0.66016 1.72656,-0.13538 3.30078,-0.20309 4.72266,-0.20312 2.8776,3e-5 5.51822,0.37243 7.92189,1.11719 2.40363,0.71097 4.46873,1.81123 6.19532,3.30078 1.72654,1.45576 3.06378,3.31774 4.01173,5.58595 0.94788,2.2344 1.42184,4.87503 1.42188,7.92189 m -19.14456,13.60939 c 4.67186,0 8.15884,-1.18489 10.46095,-3.55469 2.30206,-2.40364 3.4531,-5.75521 3.45313,-10.0547 -3e-5,-4.29947 -1.15107,-7.63411 -3.45313,-10.00393 -2.30211,-2.40362 -5.78909,-3.60544 -10.46095,-3.60547 -1.38804,3e-5 -2.47137,0.017 -3.25001,0.0508 -0.7448,0.0339 -1.26954,0.0677 -1.57422,0.10156 l 0,26.91411 c 0.30468,0.0339 0.82942,0.0677 1.57422,0.10156 0.77864,0.0339 1.86197,0.0508 3.25001,0.0508"
         style="marker:none"
         id="path4216"
         inkscape:connector-curvature="0" />
      <path
         d="m 1004.1203,632.97144 -4.72271,0 0,-26.40629 4.72271,0 0,26.40629 m -2.3868,-31.17974 c -0.8463,3e-5 -1.5742,-0.2708 -2.18357,-0.8125 -0.57552,-0.57549 -0.86328,-1.33721 -0.86328,-2.28516 0,-0.94788 0.28776,-1.69267 0.86328,-2.23438 0.60937,-0.57548 1.33727,-0.86324 2.18357,-0.86328 0.8464,4e-5 1.5573,0.2878 2.1328,0.86328 0.6094,0.54171 0.9141,1.2865 0.9141,2.23438 0,0.94795 -0.3047,1.70967 -0.9141,2.28516 -0.5755,0.5417 -1.2864,0.81253 -2.1328,0.8125"
         style="marker:none"
         id="path4218"
         inkscape:connector-curvature="0" />
      <path
         d="m 1049.2008,606.56515 c -1.3203,4.94273 -2.8776,9.68232 -4.6718,14.21877 -1.7605,4.53647 -3.4701,8.59897 -5.129,12.18752 l -4.2656,0 c -1.6589,-3.58855 -3.3854,-7.65105 -5.1797,-12.18752 -1.7604,-4.53645 -3.3008,-9.27604 -4.6211,-14.21877 l 5.0782,0 c 0.4062,1.65888 0.8802,3.43622 1.4218,5.33204 0.5755,1.862 1.168,3.72398 1.7774,5.58594 0.6432,1.82814 1.2864,3.60549 1.9297,5.33204 0.6432,1.72657 1.2526,3.26694 1.8281,4.6211 0.5755,-1.35416 1.1849,-2.89453 1.8281,-4.6211 0.6432,-1.72655 1.2695,-3.5039 1.8789,-5.33204 0.6432,-1.86196 1.2357,-3.72394 1.7774,-5.58594 0.5755,-1.89582 1.0664,-3.67316 1.4726,-5.33204 l 4.875,0"
         style="marker:none"
         id="path4220"
         inkscape:connector-curvature="0" />
      <path
         d="m 1075.0885,632.97144 -4.7227,0 0,-26.40629 4.7227,0 0,26.40629 m -2.3868,-31.17974 c -0.8463,3e-5 -1.5742,-0.2708 -2.1836,-0.8125 -0.5755,-0.57549 -0.8633,-1.33721 -0.8632,-2.28516 -10e-5,-0.94788 0.2877,-1.69267 0.8632,-2.23438 0.6094,-0.57548 1.3373,-0.86324 2.1836,-0.86328 0.8464,4e-5 1.5573,0.2878 2.1328,0.86328 0.6094,0.54171 0.9141,1.2865 0.9141,2.23438 0,0.94795 -0.3047,1.70967 -0.9141,2.28516 -0.5755,0.5417 -1.2864,0.81253 -2.1328,0.8125"
         style="marker:none"
         id="path4222"
         inkscape:connector-curvature="0" />
      <path
         d="m 1105.6964,629.56909 c 1.9296,0 3.3515,-0.25391 4.2656,-0.76172 0.9479,-0.50781 1.4219,-1.32031 1.4219,-2.43751 0,-1.15103 -0.4571,-2.0651 -1.3711,-2.74219 -0.9141,-0.67707 -2.4206,-1.43879 -4.5196,-2.28516 -1.0156,-0.40624 -1.9974,-0.81249 -2.9453,-1.21875 -0.914,-0.44009 -1.7096,-0.9479 -2.3867,-1.52344 -0.6771,-0.57551 -1.2188,-1.26952 -1.625,-2.08203 -0.4063,-0.81249 -0.6094,-1.81119 -0.6094,-2.9961 0,-2.33592 0.8633,-4.18097 2.5899,-5.53517 1.7265,-1.38799 4.0794,-2.082 7.0586,-2.08203 0.7448,3e-5 1.4895,0.0508 2.2344,0.15234 0.7447,0.0677 1.4387,0.1693 2.082,0.30469 0.6432,0.10159 1.2018,0.22008 1.6758,0.35547 0.5078,0.13544 0.8971,0.25393 1.1679,0.35547 l -0.8632,4.06251 c -0.5079,-0.27082 -1.3034,-0.54165 -2.3868,-0.81251 -1.0833,-0.30466 -2.3867,-0.457 -3.9101,-0.45703 -1.3204,3e-5 -2.4714,0.27086 -3.4532,0.8125 -0.9817,0.50784 -1.4726,1.32034 -1.4726,2.43751 0,0.57554 0.1015,1.08335 0.3047,1.52344 0.2369,0.44012 0.5755,0.84637 1.0156,1.21875 0.474,0.33856 1.0495,0.66017 1.7266,0.96484 0.677,0.30471 1.4895,0.62632 2.4375,0.96485 1.2526,0.47397 2.3697,0.94793 3.3515,1.42188 0.9818,0.44011 1.8112,0.96485 2.4883,1.57422 0.7109,0.60938 1.2526,1.35418 1.625,2.23438 0.3724,0.84636 0.5586,1.89584 0.5586,3.14844 0,2.43751 -0.9141,4.28256 -2.7422,5.53516 -1.7943,1.25261 -4.3672,1.87891 -7.7187,1.87891 -2.336,0 -4.1641,-0.20312 -5.4844,-0.60937 -1.3203,-0.3724 -2.2175,-0.66016 -2.6914,-0.86329 l 0.8633,-4.0625 c 0.5416,0.20313 1.4049,0.50781 2.5898,0.91406 1.1849,0.40625 2.7591,0.60938 4.7227,0.60938"
         style="marker:none"
         id="path4224"
         inkscape:connector-curvature="0" />
      <path
         d="m 1143.1804,632.97144 -4.7227,0 0,-26.40629 4.7227,0 0,26.40629 m -2.3868,-31.17974 c -0.8463,3e-5 -1.5742,-0.2708 -2.1835,-0.8125 -0.5756,-0.57549 -0.8633,-1.33721 -0.8633,-2.28516 0,-0.94788 0.2877,-1.69267 0.8633,-2.23438 0.6093,-0.57548 1.3372,-0.86324 2.1835,-0.86328 0.8464,4e-5 1.5573,0.2878 2.1329,0.86328 0.6093,0.54171 0.914,1.2865 0.914,2.23438 0,0.94795 -0.3047,1.70967 -0.914,2.28516 -0.5756,0.5417 -1.2865,0.81253 -2.1329,0.8125"
         style="marker:none"
         id="path4226"
         inkscape:connector-curvature="0" />
      <path
         d="m 1190.9524,619.76829 c -10e-5,2.09897 -0.3047,3.99481 -0.9141,5.68751 -0.6094,1.69272 -1.4727,3.14845 -2.5898,4.36719 -1.0834,1.21876 -2.3868,2.16667 -3.9102,2.84376 -1.5235,0.64323 -3.1823,0.96484 -4.9766,0.96484 -1.7943,0 -3.4531,-0.32161 -4.9765,-0.96484 -1.5235,-0.67709 -2.8438,-1.625 -3.961,-2.84376 -1.0833,-1.21874 -1.9297,-2.67447 -2.5391,-4.36719 -0.6093,-1.6927 -0.914,-3.58854 -0.914,-5.68751 0,-2.06509 0.3047,-3.944 0.914,-5.63673 0.6094,-1.72654 1.4558,-3.1992 2.5391,-4.41797 1.1172,-1.21873 2.4375,-2.14972 3.961,-2.79297 1.5234,-0.67706 3.1822,-1.0156 4.9765,-1.01563 1.7943,3e-5 3.4531,0.33857 4.9766,1.01563 1.5234,0.64325 2.8268,1.57424 3.9102,2.79297 1.1171,1.21877 1.9804,2.69143 2.5898,4.41797 0.6094,1.69273 0.914,3.57164 0.9141,5.63673 m -4.9258,0 c 0,-2.97915 -0.6771,-5.33202 -2.0313,-7.0586 -1.3203,-1.7604 -3.1315,-2.64061 -5.4336,-2.64063 -2.3021,2e-5 -4.1302,0.88023 -5.4844,2.64063 -1.3203,1.72658 -1.9804,4.07945 -1.9804,7.0586 0,2.97918 0.6601,5.34897 1.9804,7.10939 1.3542,1.72657 3.1823,2.58985 5.4844,2.58984 2.3021,10e-6 4.1133,-0.86327 5.4336,-2.58984 1.3542,-1.76042 2.0313,-4.13021 2.0313,-7.10939"
         style="marker:none"
         id="path4228"
         inkscape:connector-curvature="0" />
      <path
         d="m 1213.8891,607.32687 c 1.0833,-0.27081 2.5221,-0.55857 4.3164,-0.86329 1.7943,-0.30466 3.8594,-0.457 6.1953,-0.45703 2.099,3e-5 3.8425,0.30472 5.2305,0.91407 1.388,0.57554 2.4883,1.40497 3.3008,2.48828 0.8463,1.0495 1.4388,2.31904 1.7773,3.8086 0.3386,1.4896 0.5078,3.13153 0.5079,4.92579 l 0,14.82815 -4.7227,0 0,-13.81253 c 0,-1.62498 -0.1185,-3.013 -0.3555,-4.16406 -0.2031,-1.15103 -0.5586,-2.08202 -1.0664,-2.79298 -0.5078,-0.71091 -1.1849,-1.21873 -2.0312,-1.52344 -0.8464,-0.33852 -1.8959,-0.50779 -3.1485,-0.50781 -0.5078,2e-5 -1.0325,0.017 -1.5742,0.0508 -0.5417,0.0339 -1.0664,0.0847 -1.5742,0.15235 -0.474,0.0339 -0.9141,0.0847 -1.3203,0.15234 -0.3724,0.0677 -0.6433,0.11851 -0.8125,0.15234 l 0,22.29301 -4.7227,0 0,-25.64457"
         style="marker:none"
         id="path4230"
         inkscape:connector-curvature="0" />
    </g>
  </g>
  <g
     inkscape:groupmode="layer"
     id="layer2"
     inkscape:label="Layer"
     style="display:none"
     transform="translate(-440.7909,-593.56513)">
    <g
       style="display:inline"
       id="g3961">
      <path
         transform="translate(-8.8620388,8.4234951)"
         d="m 276.42856,285.21933 c 0,1.38071 -1.11929,2.5 -2.5,2.5 -1.38071,0 -2.5,-1.11929 -2.5,-2.5 0,-1.38071 1.11929,-2.5 2.5,-2.5 1.38071,0 2.5,1.11929 2.5,2.5 z"
         sodipodi:ry="2.5"
         sodipodi:rx="2.5"
         sodipodi:cy="285.21933"
         sodipodi:cx="273.92856"
         id="path3915"
         style="fill:#000000;fill-opacity:0.98421056;stroke:#000000;stroke-width:5;stroke-miterlimit:4;stroke-opacity:1;stroke-dasharray:none;stroke-dashoffset:0"
         sodipodi:type="arc" />
      <path
         transform="translate(-1.8454367,-7.1301728)"
         d="m 276.42856,285.21933 c 0,1.38071 -1.11929,2.5 -2.5,2.5 -1.38071,0 -2.5,-1.11929 -2.5,-2.5 0,-1.38071 1.11929,-2.5 2.5,-2.5 1.38071,0 2.5,1.11929 2.5,2.5 z"
         sodipodi:ry="2.5"
         sodipodi:rx="2.5"
         sodipodi:cy="285.21933"
         sodipodi:cx="273.92856"
         id="path3915-6"
         style="fill:#000000;fill-opacity:0.98421056;stroke:#000000;stroke-width:5;stroke-miterlimit:4;stroke-opacity:1;stroke-dasharray:none;stroke-dashoffset:0"
         sodipodi:type="arc" />
      <path
         transform="matrix(1.630657,0,0,1.5406966,-185.43181,-178.63676)"
         d="m 276.42856,285.21933 c 0,1.38071 -1.11929,2.5 -2.5,2.5 -1.38071,0 -2.5,-1.11929 -2.5,-2.5 0,-1.38071 1.11929,-2.5 2.5,-2.5 1.38071,0 2.5,1.11929 2.5,2.5 z"
         sodipodi:ry="2.5"
         sodipodi:rx="2.5"
         sodipodi:cy="285.21933"
         sodipodi:cx="273.92856"
         id="path3915-65"
         style="fill:#000000;fill-opacity:0.98421056;stroke:#000000;stroke-width:5;stroke-miterlimit:4;stroke-opacity:1;stroke-dasharray:none;stroke-dashoffset:0"
         sodipodi:type="arc" />
    </g>
    <path
       style="fill:none;stroke:#000000;stroke-width:1px;stroke-linecap:butt;stroke-linejoin:miter;stroke-opacity:1;display:inline"
       d="m 137.14286,244.1479 c 20.61384,-35.70421 20.89286,-34.82143 20.89286,-34.82143 l 12.32143,17.14285"
       id="path3131"
       inkscape:connector-curvature="0" />
    <path
       style="fill:none;stroke:#000000;stroke-width:1px;stroke-linecap:butt;stroke-linejoin:miter;stroke-opacity:1;display:inline"
       d="m 283.57143,221.6479 c -50.53572,-54.82143 -50.53572,-54.82143 -50.53572,-54.82143 l -11.25,16.96428"
       id="path3133"
       inkscape:connector-curvature="0" />
    <path
       style="fill:none;stroke:#000000;stroke-width:1px;stroke-linecap:butt;stroke-linejoin:miter;stroke-opacity:1;display:inline"
       d="m 195.53571,191.38102 c 20.61384,-35.70421 20.89286,-34.82143 20.89286,-34.82143 L 228.75,173.70244"
       id="path3131-0"
       inkscape:connector-curvature="0" />
  </g>
</svg>
