<?xml version="1.0" encoding="UTF-8" standalone="no"?>
<!-- Created with Inkscape (http://www.inkscape.org/) -->

<svg
   xmlns:dc="http://purl.org/dc/elements/1.1/"
   xmlns:cc="http://creativecommons.org/ns#"
   xmlns:rdf="http://www.w3.org/1999/02/22-rdf-syntax-ns#"
   xmlns:svg="http://www.w3.org/2000/svg"
   xmlns="http://www.w3.org/2000/svg"
   xmlns:sodipodi="http://sodipodi.sourceforge.net/DTD/sodipodi-0.dtd"
   xmlns:inkscape="http://www.inkscape.org/namespaces/inkscape"
   width="659.99554"
   height="40.16803"
   id="svg2"
   version="1.1"
   inkscape:version="0.48.4 r9939"
   sodipodi:docname="810_sd.svg"
   inkscape:export-filename="/home/alex/Dropbox/810labs/logo/810logo_squarish.png"
   inkscape:export-xdpi="300"
   inkscape:export-ydpi="300">
  <defs
     id="defs4" />
  <sodipodi:namedview
     id="base"
     pagecolor="#ffffff"
     bordercolor="#666666"
     borderopacity="1.0"
     inkscape:pageopacity="0.0"
     inkscape:pageshadow="2"
     inkscape:zoom="1.4142136"
     inkscape:cx="438.55699"
     inkscape:cy="-70.993728"
     inkscape:document-units="px"
     inkscape:current-layer="layer1"
     showgrid="false"
     inkscape:window-width="2880"
     inkscape:window-height="1697"
     inkscape:window-x="0"
     inkscape:window-y="50"
     inkscape:window-maximized="1"
     fit-margin-top="0"
     fit-margin-left="0"
     fit-margin-right="0"
     fit-margin-bottom="0"
     inkscape:snap-to-guides="true"
     inkscape:snap-grids="true"
     inkscape:snap-page="true"
     inkscape:snap-center="true"
     inkscape:snap-object-midpoints="true"
     inkscape:snap-midpoints="true"
     inkscape:snap-smooth-nodes="true"
     inkscape:object-nodes="true"
     inkscape:snap-bbox="true"
     showguides="true"
     inkscape:guide-bbox="true"
     units="in" />
  <metadata
     id="metadata7">
    <rdf:RDF>
      <cc:Work
         rdf:about="">
        <dc:format>image/svg+xml</dc:format>
        <dc:type
           rdf:resource="http://purl.org/dc/dcmitype/StillImage" />
        <dc:title />
      </cc:Work>
    </rdf:RDF>
  </metadata>
  <g
     inkscape:label="Layer 1"
     inkscape:groupmode="layer"
     id="layer1"
     style="display:inline"
     transform="translate(-439.06433,-593.56513)">
    <text
       xml:space="preserve"
       style="font-size:20px;font-style:normal;font-variant:normal;font-weight:normal;font-stretch:normal;line-height:125%;letter-spacing:0px;word-spacing:0px;fill:#000000;fill-opacity:1;stroke:none;font-family:Bitstream Charter;-inkscape-font-specification:Bitstream Charter"
       x="301.53055"
       y="267.97873"
       id="text2999"
       sodipodi:linespacing="125%"><tspan
         sodipodi:role="line"
         id="tspan3001"
         x="301.53055"
         y="267.97873" /></text>
    <text
       xml:space="preserve"
       style="font-size:20px;font-style:normal;font-variant:normal;font-weight:bold;font-stretch:condensed;line-height:125%;letter-spacing:3.49000001px;word-spacing:0px;fill:#000000;fill-opacity:1;stroke:none;font-family:Liberation Sans Narrow;-inkscape-font-specification:Liberation Sans Narrow Bold Condensed"
       x="228.29448"
       y="104.02033"
       id="text4248"
       sodipodi:linespacing="125%"
       transform="translate(145.96113,206.87869)"><tspan
         sodipodi:role="line"
         id="tspan4250"
         x="228.29448"
         y="104.02033" /></text>
    <text
       xml:space="preserve"
       style="font-size:20px;font-style:normal;font-variant:normal;font-weight:bold;font-stretch:condensed;line-height:125%;letter-spacing:3.49000001px;word-spacing:0px;fill:#000000;fill-opacity:1;stroke:none;font-family:Liberation Sans Narrow;-inkscape-font-specification:Liberation Sans Narrow Bold Condensed"
       x="195.96959"
       y="180.79193"
       id="text4273"
       sodipodi:linespacing="125%"
       transform="translate(145.96113,206.87869)"><tspan
         sodipodi:role="line"
         id="tspan4275"
         x="195.96959"
         y="180.79193" /></text>
    <flowRoot
       xml:space="preserve"
       id="flowRoot4397"
       style="font-size:20px;font-style:normal;font-variant:normal;font-weight:normal;font-stretch:normal;line-height:125%;letter-spacing:3.49000001px;word-spacing:0px;fill:#000000;fill-opacity:1;stroke:none;font-family:Bitstream Charter;-inkscape-font-specification:Bitstream Charter"
       transform="translate(-247.81152,-37.190643)"><flowRegion
         id="flowRegion4399"><rect
           id="rect4401"
           width="49.143921"
           height="29.344931"
           x="767.74121"
           y="572.56171" /></flowRegion><flowPara
         id="flowPara4403" /></flowRoot>    <g
       style="font-size:50.78132629px;font-style:normal;font-variant:normal;font-weight:normal;font-stretch:normal;text-indent:0;text-align:start;text-decoration:none;line-height:100%;letter-spacing:16.29233551px;word-spacing:0px;text-transform:none;direction:ltr;block-progression:tb;writing-mode:lr-tb;text-anchor:start;baseline-shift:baseline;color:#000000;fill:#000000;fill-opacity:1;fill-rule:nonzero;stroke:none;stroke-width:1px;marker:none;visibility:visible;display:inline;overflow:visible;enable-background:accumulate;font-family:Ubuntu;-inkscape-font-specification:Ubuntu"
       id="text4044">
      <path
         d="m 449.93154,629.46752 c 5.14582,10e-6 7.71874,-1.76041 7.71876,-5.28125 -2e-5,-1.08333 -0.237,-1.99739 -0.71094,-2.7422 -0.44012,-0.77863 -1.0495,-1.43879 -1.82813,-1.98047 -0.77866,-0.5755 -1.6758,-1.06639 -2.69141,-1.47266 -0.98178,-0.40623 -2.03126,-0.81248 -3.14844,-1.21875 -1.28647,-0.44009 -2.50522,-0.93097 -3.65626,-1.47266 -1.15105,-0.5755 -2.14974,-1.23566 -2.99609,-1.98047 -0.84636,-0.77862 -1.52345,-1.69269 -2.03126,-2.74219 -0.47396,-1.04946 -0.71094,-2.31899 -0.71094,-3.8086 0,-3.0807 1.04948,-5.48435 3.14845,-7.21095 2.09895,-1.72653 4.99348,-2.58981 8.6836,-2.58984 2.1328,3e-5 4.06249,0.23701 5.78908,0.71093 1.76039,0.44014 3.04685,0.93103 3.85938,1.47266 l -1.57423,4.01173 c -0.71096,-0.44008 -1.77736,-0.86325 -3.19922,-1.26954 -1.38804,-0.44007 -3.01304,-0.66012 -4.87501,-0.66015 -0.94793,3e-5 -1.82814,0.10159 -2.64063,0.30468 -0.81251,0.20316 -1.52345,0.50785 -2.13281,0.91407 -0.60939,0.40628 -1.10027,0.93102 -1.47266,1.57422 -0.33855,0.6094 -0.50782,1.33727 -0.50781,2.1836 -10e-6,0.94794 0.18619,1.74351 0.55859,2.38672 0.37239,0.64325 0.89713,1.21877 1.57422,1.72656 0.67708,0.47399 1.45572,0.91409 2.33594,1.32032 0.91406,0.40627 1.91275,0.81252 2.9961,1.21875 1.52343,0.6094 2.91145,1.21877 4.16407,1.82813 1.28644,0.60939 2.3867,1.33726 3.30079,2.1836 0.94789,0.84637 1.67576,1.86199 2.18359,3.04687 0.50779,1.15106 0.7617,2.55601 0.76172,4.21485 -2e-5,3.08074 -1.13414,5.45054 -3.40234,7.10939 -2.2344,1.65886 -5.39977,2.48828 -9.49611,2.48829 -1.38804,-10e-6 -2.6745,-0.10157 -3.85938,-0.30469 -1.15105,-0.16927 -2.18361,-0.3724 -3.09766,-0.60938 -0.91407,-0.27083 -1.70965,-0.54167 -2.38673,-0.8125 -0.64323,-0.30469 -1.15104,-0.55859 -1.52344,-0.76172 l 1.47266,-4.06251 c 0.77865,0.44011 1.96354,0.931 3.55469,1.47266 1.59114,0.54167 3.53776,0.81251 5.83986,0.8125"
         style="marker:none"
         id="path3003" />
      <path
         d="m 508.0296,619.76829 c -3e-5,2.09897 -0.30472,3.99481 -0.91407,5.68751 -0.6094,1.69272 -1.47268,3.14845 -2.58984,4.36719 -1.08336,1.21876 -2.38675,2.16667 -3.91017,2.84376 -1.52345,0.64323 -3.18231,0.96484 -4.97657,0.96484 -1.79428,0 -3.45314,-0.32161 -4.97657,-0.96484 -1.52344,-0.67709 -2.84376,-1.625 -3.96094,-2.84376 -1.08334,-1.21874 -1.92969,-2.67447 -2.53907,-4.36719 -0.60937,-1.6927 -0.91406,-3.58854 -0.91406,-5.68751 0,-2.06509 0.30469,-3.944 0.91406,-5.63673 0.60938,-1.72654 1.45573,-3.1992 2.53907,-4.41797 1.11718,-1.21873 2.4375,-2.14972 3.96094,-2.79297 1.52343,-0.67706 3.18229,-1.0156 4.97657,-1.01563 1.79426,3e-5 3.45312,0.33857 4.97657,1.01563 1.52342,0.64325 2.82681,1.57424 3.91017,2.79297 1.11716,1.21877 1.98044,2.69143 2.58984,4.41797 0.60935,1.69273 0.91404,3.57164 0.91407,5.63673 m -4.92579,0 c -2e-5,-2.97915 -0.67711,-5.33202 -2.03125,-7.0586 -1.32034,-1.7604 -3.13154,-2.64061 -5.43361,-2.64063 -2.3021,2e-5 -4.13022,0.88023 -5.48438,2.64063 -1.32032,1.72658 -1.98048,4.07945 -1.98047,7.0586 -1e-5,2.97918 0.66015,5.34897 1.98047,7.10939 1.35416,1.72657 3.18228,2.58985 5.48438,2.58984 2.30207,10e-6 4.11327,-0.86327 5.43361,-2.58984 1.35414,-1.76042 2.03123,-4.13021 2.03125,-7.10939"
         style="marker:none"
         id="path3005" />
      <path
         d="m 541.27496,593.56513 c 1.38801,4e-5 2.57291,0.1016 3.55469,0.30468 1.01561,0.20317 1.72655,0.38937 2.13282,0.5586 l -0.86328,4.0625 c -0.40627,-0.20309 -0.98179,-0.38928 -1.72657,-0.55859 -0.74481,-0.20309 -1.65887,-0.30465 -2.74219,-0.30469 -2.20054,4e-5 -3.7409,0.60941 -4.6211,1.82813 -0.88022,1.18493 -1.32032,2.793 -1.32031,4.82423 l 0,2.28516 10.15626,0 0,3.96094 -10.15626,0 0,22.44535 -4.72267,0 0,-28.79302 c 0,-3.38539 0.82943,-5.99216 2.48829,-7.82032 1.65885,-1.86194 4.26562,-2.79293 7.82032,-2.79297"
         style="marker:none"
         id="path3007" />
      <path
         d="m 571.31476,606.56515 10.00392,0 0,3.96094 -10.00392,0 0,12.18752 c -10e-6,1.32032 0.10155,2.42058 0.30468,3.30078 0.20312,0.84637 0.50781,1.52345 0.91407,2.03126 0.40624,0.47396 0.91405,0.8125 1.52344,1.01562 0.60936,0.20313 1.3203,0.30469 2.13281,0.30469 1.42187,0 2.55598,-0.15234 3.40235,-0.45703 0.88019,-0.33854 1.48957,-0.57552 1.82813,-0.71094 l 0.91406,3.91016 c -0.47397,0.23698 -1.3034,0.52474 -2.48828,0.86329 -1.18491,0.37239 -2.53908,0.55859 -4.06251,0.55859 -1.79428,0 -3.28387,-0.22005 -4.46875,-0.66016 -1.15105,-0.47396 -2.08204,-1.16797 -2.79298,-2.08203 -0.71094,-0.91406 -1.21875,-2.03125 -1.52344,-3.35157 -0.27083,-1.35416 -0.40625,-2.91145 -0.40625,-4.67188 l 0,-23.56254 4.72267,-0.8125 0,8.1758"
         style="marker:none"
         id="path3009" />
      <path
         d="m 625.20274,632.97144 c -0.94795,-2.43751 -1.96357,-5.21355 -3.04688,-8.32814 -1.04951,-3.14843 -2.01435,-6.41536 -2.89454,-9.8008 -0.88023,3.38544 -1.84507,6.65237 -2.89453,9.8008 -1.0495,3.11459 -2.0482,5.89063 -2.9961,8.32814 l -4.11329,0 c -1.5573,-3.48699 -3.08074,-7.46485 -4.57032,-11.93362 -1.48959,-4.46874 -2.89454,-9.29296 -4.21485,-14.47267 l 5.07813,0 c 0.33854,1.59117 0.74479,3.31773 1.21875,5.17969 0.47396,1.862 0.96484,3.72398 1.47266,5.58595 0.54166,1.86199 1.10026,3.65626 1.67579,5.38282 0.57551,1.72657 1.11717,3.23308 1.625,4.51954 0.57551,-1.59115 1.1341,-3.26693 1.67578,-5.02736 0.57551,-1.79426 1.11718,-3.58853 1.62501,-5.38282 0.50779,-1.82811 0.98175,-3.60545 1.42187,-5.33204 0.47394,-1.76039 0.88019,-3.40232 1.21875,-4.92578 l 3.91017,0 c 0.30466,1.52346 0.67706,3.16539 1.11719,4.92578 0.44008,1.72659 0.91404,3.50393 1.42187,5.33204 0.50779,1.79429 1.03253,3.58856 1.57422,5.38282 0.5755,1.76043 1.15102,3.43621 1.72657,5.02736 0.50778,-1.28646 1.03252,-2.79297 1.57422,-4.51954 0.57549,-1.72656 1.13409,-3.52083 1.67578,-5.38282 0.54164,-1.86197 1.04945,-3.72395 1.52344,-5.58595 0.47393,-1.86196 0.88018,-3.58852 1.21876,-5.17969 l 4.875,0 c -1.32035,5.17971 -2.7253,10.00393 -4.21485,14.47267 -1.48962,4.46877 -3.01305,8.44663 -4.57032,11.93362 l -4.11328,0"
         style="marker:none"
         id="path3011" />
      <path
         d="m 668.32506,629.56909 c 1.11718,0 2.09895,-0.0169 2.94532,-0.0508 0.88019,-0.0677 1.60806,-0.16927 2.1836,-0.30469 l 0,-7.87111 c -0.33856,-0.16926 -0.89716,-0.30467 -1.67579,-0.40625 -0.74481,-0.1354 -1.65887,-0.20311 -2.74219,-0.20312 -0.71095,10e-6 -1.47267,0.0508 -2.28516,0.15234 -0.77866,0.10157 -1.50652,0.32163 -2.1836,0.66016 -0.64323,0.3047 -1.1849,0.7448 -1.625,1.32031 -0.44011,0.54168 -0.66016,1.26954 -0.66016,2.1836 0,1.69272 0.54166,2.87761 1.62501,3.55469 1.08332,0.64324 2.55598,0.96485 4.41797,0.96485 m -0.40625,-23.6641 c 1.89582,3e-5 3.48697,0.25393 4.77345,0.76172 1.32029,0.47398 2.36977,1.16799 3.14844,2.08203 0.81248,0.88024 1.388,1.94664 1.72656,3.19923 0.33852,1.21877 0.50779,2.57294 0.50782,4.0625 l 0,16.50393 c -0.40628,0.0677 -0.9818,0.16927 -1.72657,0.30469 -0.71096,0.10156 -1.52346,0.20313 -2.4375,0.30469 -0.91408,0.10156 -1.91278,0.1862 -2.9961,0.25391 -1.0495,0.10156 -2.09898,0.15234 -3.14844,0.15234 -1.4896,0 -2.86069,-0.15234 -4.11329,-0.45703 -1.25261,-0.30469 -2.33595,-0.77865 -3.25,-1.42188 -0.91407,-0.67708 -1.62501,-1.55729 -2.13282,-2.64063 -0.50782,-1.08333 -0.76172,-2.38671 -0.76172,-3.91016 0,-1.45572 0.28776,-2.70833 0.86328,-3.75782 0.60937,-1.04947 1.42187,-1.89582 2.43751,-2.53906 1.01562,-0.64322 2.20051,-1.11718 3.55469,-1.42188 1.35416,-0.30467 2.77603,-0.45702 4.26563,-0.45703 0.47395,10e-6 0.96483,0.0339 1.47266,0.10156 0.5078,0.0339 0.98176,0.10158 1.42188,0.20312 0.47394,0.0677 0.88019,0.13544 1.21875,0.20313 0.33852,0.0677 0.5755,0.1185 0.71094,0.15234 l 0,-1.32031 c -2e-5,-0.77863 -0.0847,-1.54035 -0.25391,-2.28516 -0.16929,-0.77863 -0.47398,-1.45571 -0.91406,-2.03125 -0.44013,-0.60936 -1.0495,-1.08332 -1.82813,-1.42188 -0.74481,-0.37237 -1.72658,-0.55857 -2.94532,-0.5586 -1.5573,3e-5 -2.9284,0.11852 -4.11329,0.35547 -1.15105,0.20315 -2.01433,0.4232 -2.58984,0.66016 l -0.5586,-3.91016 c 0.60937,-0.27081 1.625,-0.52471 3.04688,-0.76172 1.42187,-0.27081 2.96223,-0.40622 4.6211,-0.40625"
         style="marker:none"
         id="path3013" />
      <path
         d="m 711.91158,606.00655 c 0.40624,3e-5 0.86327,0.0339 1.3711,0.10156 0.54165,0.0339 1.06639,0.10159 1.57422,0.20313 0.50779,0.0677 0.96483,0.15237 1.37109,0.25391 0.44009,0.0677 0.7617,0.13544 0.96485,0.20312 l -0.8125,4.11329 c -0.37242,-0.1354 -0.99872,-0.28774 -1.87891,-0.45703 -0.84637,-0.20311 -1.94663,-0.30467 -3.30079,-0.30469 -0.88022,2e-5 -1.76043,0.10158 -2.64063,0.30469 -0.84636,0.16929 -1.40496,0.28778 -1.67578,0.35547 l 0,22.19144 -4.72266,0 0,-25.2891 c 1.11718,-0.40623 2.5052,-0.77863 4.16406,-1.11719 1.65885,-0.37237 3.52083,-0.55857 5.58595,-0.5586"
         style="marker:none"
         id="path3015" />
      <path
         d="m 736.61933,619.81907 c 0,-2.33592 0.33854,-4.36717 1.01562,-6.09376 0.67708,-1.7604 1.57422,-3.21613 2.69141,-4.36719 1.11719,-1.15102 2.40365,-2.0143 3.85939,-2.58985 1.45571,-0.57549 2.9453,-0.86325 4.46875,-0.86328 3.55468,3e-5 6.27994,1.11721 8.1758,3.35157 1.89581,2.20054 2.84372,5.56903 2.84375,10.10548 -3e-5,0.20314 -3e-5,0.47397 0,0.8125 -3e-5,0.3047 -0.0169,0.59246 -0.0508,0.86328 l -18.07815,0 c 0.20311,2.7422 0.99869,4.82424 2.38672,6.24611 1.38801,1.42188 3.55468,2.13282 6.50001,2.13281 1.65884,10e-6 3.04686,-0.13541 4.16407,-0.40625 1.15102,-0.30468 2.0143,-0.59244 2.58984,-0.86328 l 0.66016,3.96094 c -0.57554,0.30469 -1.59117,0.62631 -3.04688,0.96485 -1.42189,0.33854 -3.04689,0.50781 -4.875,0.50781 -2.30211,0 -4.2995,-0.33854 -5.9922,-1.01563 -1.65887,-0.71093 -3.02996,-1.67578 -4.11329,-2.89453 -1.08334,-1.21875 -1.89584,-2.65755 -2.4375,-4.31641 -0.50782,-1.6927 -0.76172,-3.53776 -0.76172,-5.53517 m 18.12893,-2.58985 c 0.0338,-2.13279 -0.50783,-3.87628 -1.625,-5.23047 -1.08335,-1.388 -2.58987,-2.08201 -4.51954,-2.08204 -1.08335,3e-5 -2.04819,0.22008 -2.89453,0.66016 -0.81252,0.40627 -1.50653,0.94794 -2.08204,1.625 -0.57553,0.67711 -1.03256,1.45575 -1.3711,2.33594 -0.30469,0.88023 -0.50782,1.77737 -0.60937,2.69141 l 13.10158,0"
         style="marker:none"
         id="path3017" />
      <path
         d="m 839.94555,615.35032 c -4e-5,3.04689 -0.474,5.70444 -1.42188,7.97266 -0.94795,2.23439 -2.28519,4.09637 -4.01173,5.58595 -1.72659,1.45573 -3.79169,2.55599 -6.19532,3.30079 -2.40367,0.71093 -5.04429,1.0664 -7.92189,1.0664 -1.42188,0 -2.9961,-0.0677 -4.72266,-0.20312 -1.69272,-0.10156 -3.23308,-0.32162 -4.6211,-0.66016 l 0,-34.12505 c 1.38802,-0.33851 2.92838,-0.55856 4.6211,-0.66016 1.72656,-0.13538 3.30078,-0.20309 4.72266,-0.20312 2.8776,3e-5 5.51822,0.37243 7.92189,1.11719 2.40363,0.71097 4.46873,1.81123 6.19532,3.30078 1.72654,1.45576 3.06378,3.31774 4.01173,5.58595 0.94788,2.2344 1.42184,4.87503 1.42188,7.92189 m -19.14456,13.60939 c 4.67186,0 8.15884,-1.18489 10.46095,-3.55469 2.30206,-2.40364 3.4531,-5.75521 3.45313,-10.0547 -3e-5,-4.29947 -1.15107,-7.63411 -3.45313,-10.00393 -2.30211,-2.40362 -5.78909,-3.60544 -10.46095,-3.60547 -1.38804,3e-5 -2.47137,0.017 -3.25001,0.0508 -0.7448,0.0339 -1.26954,0.0677 -1.57422,0.10156 l 0,26.91411 c 0.30468,0.0339 0.82942,0.0677 1.57422,0.10156 0.77864,0.0339 1.86197,0.0508 3.25001,0.0508"
         style="marker:none"
         id="path3019" />
      <path
         d="m 867.96281,632.97144 -4.72266,0 0,-26.40629 4.72266,0 0,26.40629 m -2.38672,-31.17974 c -0.84636,3e-5 -1.57423,-0.2708 -2.1836,-0.8125 -0.57552,-0.57549 -0.86328,-1.33721 -0.86328,-2.28516 0,-0.94788 0.28776,-1.69267 0.86328,-2.23438 0.60937,-0.57548 1.33724,-0.86324 2.1836,-0.86328 0.84635,4e-5 1.55729,0.2878 2.13282,0.86328 0.60936,0.54171 0.91405,1.2865 0.91406,2.23438 -10e-6,0.94795 -0.3047,1.70967 -0.91406,2.28516 -0.57553,0.5417 -1.28647,0.81253 -2.13282,0.8125"
         style="marker:none"
         id="path3021" />
      <path
         d="m 913.0434,606.56515 c -1.32034,4.94273 -2.87763,9.68232 -4.67188,14.21877 -1.76044,4.53647 -3.47007,8.59897 -5.12891,12.18752 l -4.26563,0 c -1.65887,-3.58855 -3.38543,-7.65105 -5.1797,-12.18752 -1.76042,-4.53645 -3.30079,-9.27604 -4.6211,-14.21877 l 5.07813,0 c 0.40625,1.65888 0.8802,3.43622 1.42188,5.33204 0.57551,1.862 1.16796,3.72398 1.77735,5.58594 0.64322,1.82814 1.28645,3.60549 1.92969,5.33204 0.64321,1.72657 1.25259,3.26694 1.82812,4.6211 0.57551,-1.35416 1.18489,-2.89453 1.82813,-4.6211 0.64322,-1.72655 1.26952,-3.5039 1.87891,-5.33204 0.64321,-1.86196 1.23566,-3.72394 1.77735,-5.58594 0.5755,-1.89582 1.06639,-3.67316 1.47266,-5.33204 l 4.875,0"
         style="marker:none"
         id="path3023" />
      <path
         d="m 938.93104,632.97144 -4.72266,0 0,-26.40629 4.72266,0 0,26.40629 m -2.38672,-31.17974 c -0.84636,3e-5 -1.57422,-0.2708 -2.1836,-0.8125 -0.57552,-0.57549 -0.86328,-1.33721 -0.86328,-2.28516 0,-0.94788 0.28776,-1.69267 0.86328,-2.23438 0.60938,-0.57548 1.33724,-0.86324 2.1836,-0.86328 0.84635,4e-5 1.55729,0.2878 2.13282,0.86328 0.60936,0.54171 0.91405,1.2865 0.91406,2.23438 -10e-6,0.94795 -0.3047,1.70967 -0.91406,2.28516 -0.57553,0.5417 -1.28647,0.81253 -2.13282,0.8125"
         style="marker:none"
         id="path3025" />
      <path
         d="m 969.53896,629.56909 c 1.92967,0 3.35155,-0.25391 4.26563,-0.76172 0.9479,-0.50781 1.42186,-1.32031 1.42187,-2.43751 -10e-6,-1.15103 -0.45704,-2.0651 -1.37109,-2.74219 -0.91408,-0.67707 -2.42059,-1.43879 -4.51954,-2.28516 -1.01564,-0.40624 -1.99741,-0.81249 -2.94532,-1.21875 -0.91407,-0.44009 -1.70964,-0.9479 -2.38672,-1.52344 -0.67709,-0.57551 -1.21875,-1.26952 -1.625,-2.08203 -0.40625,-0.81249 -0.60938,-1.81119 -0.60938,-2.9961 0,-2.33592 0.86328,-4.18097 2.58985,-5.53517 1.72656,-1.38799 4.07942,-2.082 7.0586,-2.08203 0.74478,3e-5 1.48958,0.0508 2.23438,0.15234 0.74478,0.0677 1.43879,0.1693 2.08204,0.30469 0.64321,0.10159 1.2018,0.22008 1.67578,0.35547 0.5078,0.13544 0.89712,0.25393 1.16797,0.35547 l -0.86328,4.06251 c -0.50783,-0.27082 -1.30341,-0.54165 -2.38672,-0.81251 -1.08335,-0.30466 -2.38674,-0.457 -3.91017,-0.45703 -1.32032,3e-5 -2.47136,0.27086 -3.45313,0.8125 -0.98178,0.50784 -1.47266,1.32034 -1.47265,2.43751 -10e-6,0.57554 0.10155,1.08335 0.30468,1.52344 0.23698,0.44012 0.57552,0.84637 1.01563,1.21875 0.47395,0.33856 1.04947,0.66017 1.72657,0.96484 0.67707,0.30471 1.48957,0.62632 2.4375,0.96485 1.25259,0.47397 2.36978,0.94793 3.35157,1.42188 0.98175,0.44011 1.81118,0.96485 2.48828,1.57422 0.71092,0.60938 1.25259,1.35418 1.625,2.23438 0.37238,0.84636 0.55858,1.89584 0.5586,3.14844 -2e-5,2.43751 -0.91408,4.28256 -2.74219,5.53516 -1.79429,1.25261 -4.36721,1.87891 -7.71876,1.87891 -2.33595,0 -4.16408,-0.20312 -5.48439,-0.60937 -1.32032,-0.3724 -2.21745,-0.66016 -2.69141,-0.86329 l 0.86328,-4.0625 c 0.54167,0.20313 1.40495,0.50781 2.58985,0.91406 1.18489,0.40625 2.75911,0.60938 4.72267,0.60938"
         style="marker:none"
         id="path3027" />
      <path
         d="m 1007.023,632.97144 -4.7227,0 0,-26.40629 4.7227,0 0,26.40629 m -2.3868,-31.17974 c -0.8463,3e-5 -1.5742,-0.2708 -2.1836,-0.8125 -0.5755,-0.57549 -0.8632,-1.33721 -0.8632,-2.28516 0,-0.94788 0.2877,-1.69267 0.8632,-2.23438 0.6094,-0.57548 1.3373,-0.86324 2.1836,-0.86328 0.8464,4e-5 1.5573,0.2878 2.1329,0.86328 0.6093,0.54171 0.914,1.2865 0.914,2.23438 0,0.94795 -0.3047,1.70967 -0.914,2.28516 -0.5756,0.5417 -1.2865,0.81253 -2.1329,0.8125"
         style="marker:none"
         id="path3029" />
      <path
         d="m 1054.795,619.76829 c -10e-5,2.09897 -0.3048,3.99481 -0.9141,5.68751 -0.6094,1.69272 -1.4727,3.14845 -2.5898,4.36719 -1.0834,1.21876 -2.3868,2.16667 -3.9102,2.84376 -1.5235,0.64323 -3.1823,0.96484 -4.9766,0.96484 -1.7943,0 -3.4531,-0.32161 -4.9766,-0.96484 -1.5234,-0.67709 -2.8437,-1.625 -3.9609,-2.84376 -1.0833,-1.21874 -1.9297,-2.67447 -2.5391,-4.36719 -0.6093,-1.6927 -0.914,-3.58854 -0.914,-5.68751 0,-2.06509 0.3047,-3.944 0.914,-5.63673 0.6094,-1.72654 1.4558,-3.1992 2.5391,-4.41797 1.1172,-1.21873 2.4375,-2.14972 3.9609,-2.79297 1.5235,-0.67706 3.1823,-1.0156 4.9766,-1.01563 1.7943,3e-5 3.4531,0.33857 4.9766,1.01563 1.5234,0.64325 2.8268,1.57424 3.9102,2.79297 1.1171,1.21877 1.9804,2.69143 2.5898,4.41797 0.6093,1.69273 0.914,3.57164 0.9141,5.63673 m -4.9258,0 c 0,-2.97915 -0.6771,-5.33202 -2.0313,-7.0586 -1.3203,-1.7604 -3.1315,-2.64061 -5.4336,-2.64063 -2.3021,2e-5 -4.1302,0.88023 -5.4844,2.64063 -1.3203,1.72658 -1.9804,4.07945 -1.9804,7.0586 0,2.97918 0.6601,5.34897 1.9804,7.10939 1.3542,1.72657 3.1823,2.58985 5.4844,2.58984 2.3021,10e-6 4.1133,-0.86327 5.4336,-2.58984 1.3542,-1.76042 2.0313,-4.13021 2.0313,-7.10939"
         style="marker:none"
         id="path3031" />
      <path
         d="m 1077.7317,607.32687 c 1.0833,-0.27081 2.5221,-0.55857 4.3164,-0.86329 1.7943,-0.30466 3.8594,-0.457 6.1953,-0.45703 2.099,3e-5 3.8425,0.30472 5.2305,0.91407 1.388,0.57554 2.4883,1.40497 3.3008,2.48828 0.8463,1.0495 1.4388,2.31904 1.7773,3.8086 0.3386,1.4896 0.5078,3.13153 0.5079,4.92579 l 0,14.82815 -4.7227,0 0,-13.81253 c 0,-1.62498 -0.1185,-3.013 -0.3555,-4.16406 -0.2031,-1.15103 -0.5586,-2.08202 -1.0664,-2.79298 -0.5078,-0.71091 -1.1849,-1.21873 -2.0312,-1.52344 -0.8464,-0.33852 -1.8959,-0.50779 -3.1485,-0.50781 -0.5078,2e-5 -1.0325,0.017 -1.5742,0.0508 -0.5417,0.0339 -1.0664,0.0847 -1.5742,0.15235 -0.474,0.0339 -0.9141,0.0847 -1.3203,0.15234 -0.3724,0.0677 -0.6433,0.11851 -0.8125,0.15234 l 0,22.29301 -4.7227,0 0,-25.64457"
         style="marker:none"
         id="path3033" />
    </g>
  </g>
  <g
     inkscape:groupmode="layer"
     id="layer2"
     inkscape:label="Layer"
     style="display:none"
     transform="translate(-439.06433,-593.56513)">
    <g
       style="display:inline"
       id="g3961">
      <path
         transform="translate(-8.8620388,8.4234951)"
         d="m 276.42856,285.21933 c 0,1.38071 -1.11929,2.5 -2.5,2.5 -1.38071,0 -2.5,-1.11929 -2.5,-2.5 0,-1.38071 1.11929,-2.5 2.5,-2.5 1.38071,0 2.5,1.11929 2.5,2.5 z"
         sodipodi:ry="2.5"
         sodipodi:rx="2.5"
         sodipodi:cy="285.21933"
         sodipodi:cx="273.92856"
         id="path3915"
         style="fill:#000000;fill-opacity:0.98421056;stroke:#000000;stroke-width:5;stroke-miterlimit:4;stroke-opacity:1;stroke-dasharray:none;stroke-dashoffset:0"
         sodipodi:type="arc" />
      <path
         transform="translate(-1.8454367,-7.1301728)"
         d="m 276.42856,285.21933 c 0,1.38071 -1.11929,2.5 -2.5,2.5 -1.38071,0 -2.5,-1.11929 -2.5,-2.5 0,-1.38071 1.11929,-2.5 2.5,-2.5 1.38071,0 2.5,1.11929 2.5,2.5 z"
         sodipodi:ry="2.5"
         sodipodi:rx="2.5"
         sodipodi:cy="285.21933"
         sodipodi:cx="273.92856"
         id="path3915-6"
         style="fill:#000000;fill-opacity:0.98421056;stroke:#000000;stroke-width:5;stroke-miterlimit:4;stroke-opacity:1;stroke-dasharray:none;stroke-dashoffset:0"
         sodipodi:type="arc" />
      <path
         transform="matrix(1.630657,0,0,1.5406966,-185.43181,-178.63676)"
         d="m 276.42856,285.21933 c 0,1.38071 -1.11929,2.5 -2.5,2.5 -1.38071,0 -2.5,-1.11929 -2.5,-2.5 0,-1.38071 1.11929,-2.5 2.5,-2.5 1.38071,0 2.5,1.11929 2.5,2.5 z"
         sodipodi:ry="2.5"
         sodipodi:rx="2.5"
         sodipodi:cy="285.21933"
         sodipodi:cx="273.92856"
         id="path3915-65"
         style="fill:#000000;fill-opacity:0.98421056;stroke:#000000;stroke-width:5;stroke-miterlimit:4;stroke-opacity:1;stroke-dasharray:none;stroke-dashoffset:0"
         sodipodi:type="arc" />
    </g>
    <path
       style="fill:none;stroke:#000000;stroke-width:1px;stroke-linecap:butt;stroke-linejoin:miter;stroke-opacity:1;display:inline"
       d="m 137.14286,244.1479 c 20.61384,-35.70421 20.89286,-34.82143 20.89286,-34.82143 l 12.32143,17.14285"
       id="path3131"
       inkscape:connector-curvature="0" />
    <path
       style="fill:none;stroke:#000000;stroke-width:1px;stroke-linecap:butt;stroke-linejoin:miter;stroke-opacity:1;display:inline"
       d="m 283.57143,221.6479 c -50.53572,-54.82143 -50.53572,-54.82143 -50.53572,-54.82143 l -11.25,16.96428"
       id="path3133"
       inkscape:connector-curvature="0" />
    <path
       style="fill:none;stroke:#000000;stroke-width:1px;stroke-linecap:butt;stroke-linejoin:miter;stroke-opacity:1;display:inline"
       d="m 195.53571,191.38102 c 20.61384,-35.70421 20.89286,-34.82143 20.89286,-34.82143 L 228.75,173.70244"
       id="path3131-0"
       inkscape:connector-curvature="0" />
  </g>
</svg>
